ISO-10303-21;
HEADER;
/* Generated by software containing ST-Developer
 * from STEP Tools, Inc. (www.steptools.com) 
 */
/* OPTION: strings as raw bytes, not using required /X/ escapes */

FILE_DESCRIPTION(
/* description */ ('Unknown'),
/* implementation_level */ '2;1');

FILE_NAME(
/* name */ '66011002111501',
/* time_stamp */ '2019-03-12T11:39:17+01:00',
/* author */ ('Unknown'),
/* organization */ ('Unknown'),
/* preprocessor_version */ 'ST-DEVELOPER v16.7',
/* originating_system */ 'DEX',
/* authorisation */ $);

FILE_SCHEMA (('AUTOMOTIVE_DESIGN {1 0 10303 214 3 1 1}'));
ENDSEC;

DATA;
#10=PROPERTY_DEFINITION_REPRESENTATION(#14,#12);
#11=PROPERTY_DEFINITION_REPRESENTATION(#15,#13);
#12=REPRESENTATION('',(#16),#1946);
#13=REPRESENTATION('',(#17),#1946);
#14=PROPERTY_DEFINITION('pmi validation property','',#1951);
#15=PROPERTY_DEFINITION('pmi validation property','',#1951);
#16=VALUE_REPRESENTATION_ITEM('number of annotations',COUNT_MEASURE(0.));
#17=VALUE_REPRESENTATION_ITEM('number of views',COUNT_MEASURE(0.));
#18=SHAPE_REPRESENTATION_RELATIONSHIP('','',#1307,#19);
#19=ADVANCED_BREP_SHAPE_REPRESENTATION('',(#1305),#1946);
#20=LINE('',#1731,#87);
#21=LINE('',#1739,#88);
#22=LINE('',#1747,#89);
#23=LINE('',#1755,#90);
#24=LINE('',#1781,#91);
#25=LINE('',#1786,#92);
#26=LINE('',#1788,#93);
#27=LINE('',#1790,#94);
#28=LINE('',#1794,#95);
#29=LINE('',#1798,#96);
#30=LINE('',#1800,#97);
#31=LINE('',#1802,#98);
#32=LINE('',#1803,#99);
#33=LINE('',#1806,#100);
#34=LINE('',#1808,#101);
#35=LINE('',#1810,#102);
#36=LINE('',#1811,#103);
#37=LINE('',#1814,#104);
#38=LINE('',#1816,#105);
#39=LINE('',#1818,#106);
#40=LINE('',#1819,#107);
#41=LINE('',#1822,#108);
#42=LINE('',#1824,#109);
#43=LINE('',#1826,#110);
#44=LINE('',#1827,#111);
#45=LINE('',#1830,#112);
#46=LINE('',#1832,#113);
#47=LINE('',#1834,#114);
#48=LINE('',#1836,#115);
#49=LINE('',#1839,#116);
#50=LINE('',#1841,#117);
#51=LINE('',#1843,#118);
#52=LINE('',#1845,#119);
#53=LINE('',#1847,#120);
#54=LINE('',#1848,#121);
#55=LINE('',#1852,#122);
#56=LINE('',#1854,#123);
#57=LINE('',#1856,#124);
#58=LINE('',#1858,#125);
#59=LINE('',#1860,#126);
#60=LINE('',#1862,#127);
#61=LINE('',#1864,#128);
#62=LINE('',#1866,#129);
#63=LINE('',#1869,#130);
#64=LINE('',#1871,#131);
#65=LINE('',#1873,#132);
#66=LINE('',#1875,#133);
#67=LINE('',#1877,#134);
#68=LINE('',#1879,#135);
#69=LINE('',#1881,#136);
#70=LINE('',#1883,#137);
#71=LINE('',#1886,#138);
#72=LINE('',#1888,#139);
#73=LINE('',#1890,#140);
#74=LINE('',#1892,#141);
#75=LINE('',#1894,#142);
#76=LINE('',#1896,#143);
#77=LINE('',#1898,#144);
#78=LINE('',#1900,#145);
#79=LINE('',#1903,#146);
#80=LINE('',#1905,#147);
#81=LINE('',#1907,#148);
#82=LINE('',#1909,#149);
#83=LINE('',#1911,#150);
#84=LINE('',#1913,#151);
#85=LINE('',#1915,#152);
#86=LINE('',#1917,#153);
#87=VECTOR('',#1448,1000.);
#88=VECTOR('',#1457,1000.);
#89=VECTOR('',#1466,1000.);
#90=VECTOR('',#1475,1000.);
#91=VECTOR('',#1520,1000.);
#92=VECTOR('',#1523,1000.);
#93=VECTOR('',#1524,1000.);
#94=VECTOR('',#1527,1000.);
#95=VECTOR('',#1530,1000.);
#96=VECTOR('',#1535,1000.);
#97=VECTOR('',#1536,1000.);
#98=VECTOR('',#1537,1000.);
#99=VECTOR('',#1538,1000.);
#100=VECTOR('',#1539,1000.);
#101=VECTOR('',#1540,1000.);
#102=VECTOR('',#1541,1000.);
#103=VECTOR('',#1542,1000.);
#104=VECTOR('',#1543,1000.);
#105=VECTOR('',#1544,1000.);
#106=VECTOR('',#1545,1000.);
#107=VECTOR('',#1546,1000.);
#108=VECTOR('',#1547,1000.);
#109=VECTOR('',#1548,1000.);
#110=VECTOR('',#1549,1000.);
#111=VECTOR('',#1550,1000.);
#112=VECTOR('',#1551,1000.);
#113=VECTOR('',#1552,1000.);
#114=VECTOR('',#1553,1000.);
#115=VECTOR('',#1556,1000.);
#116=VECTOR('',#1559,1000.);
#117=VECTOR('',#1562,1000.);
#118=VECTOR('',#1563,1000.);
#119=VECTOR('',#1564,1000.);
#120=VECTOR('',#1567,1000.);
#121=VECTOR('',#1568,1000.);
#122=VECTOR('',#1575,1000.);
#123=VECTOR('',#1576,1000.);
#124=VECTOR('',#1577,1000.);
#125=VECTOR('',#1580,1000.);
#126=VECTOR('',#1581,1000.);
#127=VECTOR('',#1584,1000.);
#128=VECTOR('',#1585,1000.);
#129=VECTOR('',#1588,1000.);
#130=VECTOR('',#1593,1000.);
#131=VECTOR('',#1594,1000.);
#132=VECTOR('',#1595,1000.);
#133=VECTOR('',#1598,1000.);
#134=VECTOR('',#1599,1000.);
#135=VECTOR('',#1602,1000.);
#136=VECTOR('',#1603,1000.);
#137=VECTOR('',#1606,1000.);
#138=VECTOR('',#1611,1000.);
#139=VECTOR('',#1612,1000.);
#140=VECTOR('',#1613,1000.);
#141=VECTOR('',#1616,1000.);
#142=VECTOR('',#1617,1000.);
#143=VECTOR('',#1620,1000.);
#144=VECTOR('',#1621,1000.);
#145=VECTOR('',#1624,1000.);
#146=VECTOR('',#1629,1000.);
#147=VECTOR('',#1630,1000.);
#148=VECTOR('',#1631,1000.);
#149=VECTOR('',#1634,1000.);
#150=VECTOR('',#1635,1000.);
#151=VECTOR('',#1638,1000.);
#152=VECTOR('',#1639,1000.);
#153=VECTOR('',#1642,1000.);
#154=ELLIPSE('',#1324,9.00499861188217,0.3);
#155=ELLIPSE('',#1325,10.5058317138625,0.35);
#156=ELLIPSE('',#1326,10.5058317138624,0.35);
#157=ELLIPSE('',#1328,10.5058317138627,0.35);
#158=ELLIPSE('',#1329,10.5058317138625,0.35);
#159=ELLIPSE('',#1330,9.00499861188218,0.3);
#160=ELLIPSE('',#1332,9.00499861188218,0.3);
#161=ELLIPSE('',#1333,10.5058317138625,0.35);
#162=ELLIPSE('',#1334,10.5058317138627,0.35);
#163=ELLIPSE('',#1336,10.5058317138625,0.35);
#164=ELLIPSE('',#1337,10.5058317138625,0.35);
#165=ELLIPSE('',#1338,9.00499861188217,0.3);
#166=B_SPLINE_CURVE_WITH_KNOTS('',3,(#1695,#1696,#1697,#1698),
 .UNSPECIFIED.,.F.,.F.,(4,4),(0.,7.10102416408918E-5),.UNSPECIFIED.);
#167=B_SPLINE_CURVE_WITH_KNOTS('',3,(#1703,#1704,#1705,#1706),
 .UNSPECIFIED.,.F.,.F.,(4,4),(3.83716059450453E-18,7.10102416408918E-5),
 .UNSPECIFIED.);
#168=B_SPLINE_CURVE_WITH_KNOTS('',3,(#1710,#1711,#1712,#1713),
 .UNSPECIFIED.,.F.,.F.,(4,4),(0.,7.10102416408917E-5),.UNSPECIFIED.);
#169=B_SPLINE_CURVE_WITH_KNOTS('',3,(#1718,#1719,#1720,#1721),
 .UNSPECIFIED.,.F.,.F.,(4,4),(7.82299013419328E-19,7.1010241640892E-5),
 .UNSPECIFIED.);
#170=CYLINDRICAL_SURFACE('',#1316,0.35);
#171=CYLINDRICAL_SURFACE('',#1344,0.3);
#172=CYLINDRICAL_SURFACE('',#1345,0.3);
#173=CYLINDRICAL_SURFACE('',#1346,0.35);
#174=CYLINDRICAL_SURFACE('',#1348,0.35);
#175=CYLINDRICAL_SURFACE('',#1350,1.125);
#176=CYLINDRICAL_SURFACE('',#1356,0.35);
#177=CYLINDRICAL_SURFACE('',#1357,0.35);
#178=CYLINDRICAL_SURFACE('',#1392,1.75);
#179=CYLINDRICAL_SURFACE('',#1397,1.21);
#180=CYLINDRICAL_SURFACE('',#1401,1.51);
#181=CYLINDRICAL_SURFACE('',#1405,1.45);
#182=CYLINDRICAL_SURFACE('',#1409,1.125);
#183=CONICAL_SURFACE('',#1314,0.25,0.785398163397447);
#184=CONICAL_SURFACE('',#1317,0.35,0.785398163397449);
#185=CONICAL_SURFACE('',#1320,0.35,0.785398163397449);
#186=CONICAL_SURFACE('',#1399,1.51,1.21935153279135);
#187=CONICAL_SURFACE('',#1403,1.45,0.266252049150926);
#188=CONICAL_SURFACE('',#1407,1.58,0.514451313059026);
#189=CONICAL_SURFACE('',#1408,1.75,0.78539816339745);
#190=COLOUR_RGB('',0.87058824300766,0.633254885673523,0.172549024224281);
#191=ORIENTED_EDGE('',*,*,#419,.T.);
#192=ORIENTED_EDGE('',*,*,#420,.F.);
#193=ORIENTED_EDGE('',*,*,#421,.T.);
#194=ORIENTED_EDGE('',*,*,#422,.F.);
#195=ORIENTED_EDGE('',*,*,#421,.F.);
#196=ORIENTED_EDGE('',*,*,#422,.T.);
#197=ORIENTED_EDGE('',*,*,#419,.F.);
#198=ORIENTED_EDGE('',*,*,#423,.F.);
#199=ORIENTED_EDGE('',*,*,#424,.F.);
#200=ORIENTED_EDGE('',*,*,#425,.F.);
#201=ORIENTED_EDGE('',*,*,#426,.F.);
#202=ORIENTED_EDGE('',*,*,#427,.F.);
#203=ORIENTED_EDGE('',*,*,#428,.F.);
#204=ORIENTED_EDGE('',*,*,#429,.F.);
#205=ORIENTED_EDGE('',*,*,#430,.F.);
#206=ORIENTED_EDGE('',*,*,#431,.F.);
#207=ORIENTED_EDGE('',*,*,#427,.T.);
#208=ORIENTED_EDGE('',*,*,#432,.T.);
#209=ORIENTED_EDGE('',*,*,#433,.T.);
#210=ORIENTED_EDGE('',*,*,#434,.F.);
#211=ORIENTED_EDGE('',*,*,#435,.T.);
#212=ORIENTED_EDGE('',*,*,#436,.T.);
#213=ORIENTED_EDGE('',*,*,#425,.T.);
#214=ORIENTED_EDGE('',*,*,#437,.F.);
#215=ORIENTED_EDGE('',*,*,#438,.T.);
#216=ORIENTED_EDGE('',*,*,#439,.F.);
#217=ORIENTED_EDGE('',*,*,#423,.T.);
#218=ORIENTED_EDGE('',*,*,#440,.T.);
#219=ORIENTED_EDGE('',*,*,#441,.T.);
#220=ORIENTED_EDGE('',*,*,#442,.T.);
#221=ORIENTED_EDGE('',*,*,#443,.T.);
#222=ORIENTED_EDGE('',*,*,#444,.T.);
#223=ORIENTED_EDGE('',*,*,#429,.T.);
#224=ORIENTED_EDGE('',*,*,#445,.F.);
#225=ORIENTED_EDGE('',*,*,#446,.F.);
#226=ORIENTED_EDGE('',*,*,#447,.F.);
#227=ORIENTED_EDGE('',*,*,#434,.T.);
#228=ORIENTED_EDGE('',*,*,#448,.F.);
#229=ORIENTED_EDGE('',*,*,#438,.F.);
#230=ORIENTED_EDGE('',*,*,#449,.F.);
#231=ORIENTED_EDGE('',*,*,#442,.F.);
#232=ORIENTED_EDGE('',*,*,#450,.F.);
#233=ORIENTED_EDGE('',*,*,#446,.T.);
#234=ORIENTED_EDGE('',*,*,#445,.T.);
#235=ORIENTED_EDGE('',*,*,#428,.T.);
#236=ORIENTED_EDGE('',*,*,#431,.T.);
#237=ORIENTED_EDGE('',*,*,#447,.T.);
#238=ORIENTED_EDGE('',*,*,#437,.T.);
#239=ORIENTED_EDGE('',*,*,#424,.T.);
#240=ORIENTED_EDGE('',*,*,#439,.T.);
#241=ORIENTED_EDGE('',*,*,#449,.T.);
#242=ORIENTED_EDGE('',*,*,#436,.F.);
#243=ORIENTED_EDGE('',*,*,#451,.F.);
#244=ORIENTED_EDGE('',*,*,#440,.F.);
#245=ORIENTED_EDGE('',*,*,#426,.T.);
#246=ORIENTED_EDGE('',*,*,#444,.F.);
#247=ORIENTED_EDGE('',*,*,#452,.F.);
#248=ORIENTED_EDGE('',*,*,#432,.F.);
#249=ORIENTED_EDGE('',*,*,#430,.T.);
#250=ORIENTED_EDGE('',*,*,#453,.T.);
#251=ORIENTED_EDGE('',*,*,#454,.F.);
#252=ORIENTED_EDGE('',*,*,#452,.T.);
#253=ORIENTED_EDGE('',*,*,#455,.T.);
#254=ORIENTED_EDGE('',*,*,#451,.T.);
#255=ORIENTED_EDGE('',*,*,#456,.T.);
#256=ORIENTED_EDGE('',*,*,#453,.F.);
#257=ORIENTED_EDGE('',*,*,#443,.F.);
#258=ORIENTED_EDGE('',*,*,#450,.T.);
#259=ORIENTED_EDGE('',*,*,#441,.F.);
#260=ORIENTED_EDGE('',*,*,#455,.F.);
#261=ORIENTED_EDGE('',*,*,#435,.F.);
#262=ORIENTED_EDGE('',*,*,#448,.T.);
#263=ORIENTED_EDGE('',*,*,#433,.F.);
#264=ORIENTED_EDGE('',*,*,#456,.F.);
#265=ORIENTED_EDGE('',*,*,#457,.F.);
#266=ORIENTED_EDGE('',*,*,#454,.T.);
#267=ORIENTED_EDGE('',*,*,#458,.F.);
#268=ORIENTED_EDGE('',*,*,#459,.T.);
#269=ORIENTED_EDGE('',*,*,#460,.T.);
#270=ORIENTED_EDGE('',*,*,#461,.T.);
#271=ORIENTED_EDGE('',*,*,#462,.T.);
#272=ORIENTED_EDGE('',*,*,#463,.T.);
#273=ORIENTED_EDGE('',*,*,#464,.F.);
#274=ORIENTED_EDGE('',*,*,#465,.T.);
#275=ORIENTED_EDGE('',*,*,#466,.F.);
#276=ORIENTED_EDGE('',*,*,#461,.F.);
#277=ORIENTED_EDGE('',*,*,#467,.T.);
#278=ORIENTED_EDGE('',*,*,#468,.T.);
#279=ORIENTED_EDGE('',*,*,#469,.F.);
#280=ORIENTED_EDGE('',*,*,#470,.F.);
#281=ORIENTED_EDGE('',*,*,#471,.F.);
#282=ORIENTED_EDGE('',*,*,#472,.F.);
#283=ORIENTED_EDGE('',*,*,#473,.F.);
#284=ORIENTED_EDGE('',*,*,#474,.F.);
#285=ORIENTED_EDGE('',*,*,#475,.F.);
#286=ORIENTED_EDGE('',*,*,#476,.F.);
#287=ORIENTED_EDGE('',*,*,#477,.F.);
#288=ORIENTED_EDGE('',*,*,#478,.F.);
#289=ORIENTED_EDGE('',*,*,#479,.F.);
#290=ORIENTED_EDGE('',*,*,#480,.F.);
#291=ORIENTED_EDGE('',*,*,#481,.F.);
#292=ORIENTED_EDGE('',*,*,#482,.F.);
#293=ORIENTED_EDGE('',*,*,#483,.F.);
#294=ORIENTED_EDGE('',*,*,#484,.F.);
#295=ORIENTED_EDGE('',*,*,#485,.F.);
#296=ORIENTED_EDGE('',*,*,#486,.T.);
#297=ORIENTED_EDGE('',*,*,#487,.F.);
#298=ORIENTED_EDGE('',*,*,#488,.F.);
#299=ORIENTED_EDGE('',*,*,#468,.F.);
#300=ORIENTED_EDGE('',*,*,#489,.T.);
#301=ORIENTED_EDGE('',*,*,#490,.T.);
#302=ORIENTED_EDGE('',*,*,#491,.F.);
#303=ORIENTED_EDGE('',*,*,#490,.F.);
#304=ORIENTED_EDGE('',*,*,#492,.T.);
#305=ORIENTED_EDGE('',*,*,#464,.T.);
#306=ORIENTED_EDGE('',*,*,#485,.T.);
#307=ORIENTED_EDGE('',*,*,#462,.F.);
#308=ORIENTED_EDGE('',*,*,#492,.F.);
#309=ORIENTED_EDGE('',*,*,#489,.F.);
#310=ORIENTED_EDGE('',*,*,#467,.F.);
#311=ORIENTED_EDGE('',*,*,#460,.F.);
#312=ORIENTED_EDGE('',*,*,#487,.T.);
#313=ORIENTED_EDGE('',*,*,#458,.T.);
#314=ORIENTED_EDGE('',*,*,#466,.T.);
#315=ORIENTED_EDGE('',*,*,#488,.T.);
#316=ORIENTED_EDGE('',*,*,#491,.T.);
#317=ORIENTED_EDGE('',*,*,#470,.T.);
#318=ORIENTED_EDGE('',*,*,#493,.F.);
#319=ORIENTED_EDGE('',*,*,#494,.F.);
#320=ORIENTED_EDGE('',*,*,#495,.T.);
#321=ORIENTED_EDGE('',*,*,#469,.T.);
#322=ORIENTED_EDGE('',*,*,#496,.F.);
#323=ORIENTED_EDGE('',*,*,#497,.F.);
#324=ORIENTED_EDGE('',*,*,#493,.T.);
#325=ORIENTED_EDGE('',*,*,#472,.T.);
#326=ORIENTED_EDGE('',*,*,#498,.F.);
#327=ORIENTED_EDGE('',*,*,#499,.F.);
#328=ORIENTED_EDGE('',*,*,#496,.T.);
#329=ORIENTED_EDGE('',*,*,#471,.T.);
#330=ORIENTED_EDGE('',*,*,#495,.F.);
#331=ORIENTED_EDGE('',*,*,#500,.F.);
#332=ORIENTED_EDGE('',*,*,#498,.T.);
#333=ORIENTED_EDGE('',*,*,#494,.T.);
#334=ORIENTED_EDGE('',*,*,#497,.T.);
#335=ORIENTED_EDGE('',*,*,#499,.T.);
#336=ORIENTED_EDGE('',*,*,#500,.T.);
#337=ORIENTED_EDGE('',*,*,#474,.T.);
#338=ORIENTED_EDGE('',*,*,#501,.F.);
#339=ORIENTED_EDGE('',*,*,#502,.F.);
#340=ORIENTED_EDGE('',*,*,#503,.T.);
#341=ORIENTED_EDGE('',*,*,#473,.T.);
#342=ORIENTED_EDGE('',*,*,#504,.F.);
#343=ORIENTED_EDGE('',*,*,#505,.F.);
#344=ORIENTED_EDGE('',*,*,#501,.T.);
#345=ORIENTED_EDGE('',*,*,#476,.T.);
#346=ORIENTED_EDGE('',*,*,#506,.F.);
#347=ORIENTED_EDGE('',*,*,#507,.F.);
#348=ORIENTED_EDGE('',*,*,#504,.T.);
#349=ORIENTED_EDGE('',*,*,#475,.T.);
#350=ORIENTED_EDGE('',*,*,#503,.F.);
#351=ORIENTED_EDGE('',*,*,#508,.F.);
#352=ORIENTED_EDGE('',*,*,#506,.T.);
#353=ORIENTED_EDGE('',*,*,#502,.T.);
#354=ORIENTED_EDGE('',*,*,#505,.T.);
#355=ORIENTED_EDGE('',*,*,#507,.T.);
#356=ORIENTED_EDGE('',*,*,#508,.T.);
#357=ORIENTED_EDGE('',*,*,#478,.T.);
#358=ORIENTED_EDGE('',*,*,#509,.F.);
#359=ORIENTED_EDGE('',*,*,#510,.F.);
#360=ORIENTED_EDGE('',*,*,#511,.T.);
#361=ORIENTED_EDGE('',*,*,#477,.T.);
#362=ORIENTED_EDGE('',*,*,#512,.F.);
#363=ORIENTED_EDGE('',*,*,#513,.F.);
#364=ORIENTED_EDGE('',*,*,#509,.T.);
#365=ORIENTED_EDGE('',*,*,#480,.T.);
#366=ORIENTED_EDGE('',*,*,#514,.F.);
#367=ORIENTED_EDGE('',*,*,#515,.F.);
#368=ORIENTED_EDGE('',*,*,#512,.T.);
#369=ORIENTED_EDGE('',*,*,#479,.T.);
#370=ORIENTED_EDGE('',*,*,#511,.F.);
#371=ORIENTED_EDGE('',*,*,#516,.F.);
#372=ORIENTED_EDGE('',*,*,#514,.T.);
#373=ORIENTED_EDGE('',*,*,#510,.T.);
#374=ORIENTED_EDGE('',*,*,#513,.T.);
#375=ORIENTED_EDGE('',*,*,#515,.T.);
#376=ORIENTED_EDGE('',*,*,#516,.T.);
#377=ORIENTED_EDGE('',*,*,#482,.T.);
#378=ORIENTED_EDGE('',*,*,#517,.F.);
#379=ORIENTED_EDGE('',*,*,#518,.F.);
#380=ORIENTED_EDGE('',*,*,#519,.T.);
#381=ORIENTED_EDGE('',*,*,#481,.T.);
#382=ORIENTED_EDGE('',*,*,#520,.F.);
#383=ORIENTED_EDGE('',*,*,#521,.F.);
#384=ORIENTED_EDGE('',*,*,#517,.T.);
#385=ORIENTED_EDGE('',*,*,#484,.T.);
#386=ORIENTED_EDGE('',*,*,#522,.F.);
#387=ORIENTED_EDGE('',*,*,#523,.F.);
#388=ORIENTED_EDGE('',*,*,#520,.T.);
#389=ORIENTED_EDGE('',*,*,#483,.T.);
#390=ORIENTED_EDGE('',*,*,#519,.F.);
#391=ORIENTED_EDGE('',*,*,#524,.F.);
#392=ORIENTED_EDGE('',*,*,#522,.T.);
#393=ORIENTED_EDGE('',*,*,#518,.T.);
#394=ORIENTED_EDGE('',*,*,#521,.T.);
#395=ORIENTED_EDGE('',*,*,#523,.T.);
#396=ORIENTED_EDGE('',*,*,#524,.T.);
#397=ORIENTED_EDGE('',*,*,#525,.T.);
#398=ORIENTED_EDGE('',*,*,#459,.F.);
#399=ORIENTED_EDGE('',*,*,#486,.F.);
#400=ORIENTED_EDGE('',*,*,#463,.F.);
#401=ORIENTED_EDGE('',*,*,#526,.T.);
#402=ORIENTED_EDGE('',*,*,#527,.F.);
#403=ORIENTED_EDGE('',*,*,#528,.T.);
#404=ORIENTED_EDGE('',*,*,#457,.T.);
#405=ORIENTED_EDGE('',*,*,#528,.F.);
#406=ORIENTED_EDGE('',*,*,#529,.T.);
#407=ORIENTED_EDGE('',*,*,#529,.F.);
#408=ORIENTED_EDGE('',*,*,#530,.T.);
#409=ORIENTED_EDGE('',*,*,#530,.F.);
#410=ORIENTED_EDGE('',*,*,#531,.T.);
#411=ORIENTED_EDGE('',*,*,#531,.F.);
#412=ORIENTED_EDGE('',*,*,#532,.T.);
#413=ORIENTED_EDGE('',*,*,#532,.F.);
#414=ORIENTED_EDGE('',*,*,#527,.T.);
#415=ORIENTED_EDGE('',*,*,#526,.F.);
#416=ORIENTED_EDGE('',*,*,#525,.F.);
#417=ORIENTED_EDGE('',*,*,#465,.F.);
#418=ORIENTED_EDGE('',*,*,#420,.T.);
#419=EDGE_CURVE('',#533,#533,#612,.T.);
#420=EDGE_CURVE('',#534,#534,#613,.T.);
#421=EDGE_CURVE('',#535,#535,#614,.F.);
#422=EDGE_CURVE('',#536,#536,#615,.T.);
#423=EDGE_CURVE('',#537,#538,#166,.T.);
#424=EDGE_CURVE('',#539,#537,#616,.F.);
#425=EDGE_CURVE('',#540,#539,#167,.T.);
#426=EDGE_CURVE('',#538,#540,#617,.F.);
#427=EDGE_CURVE('',#541,#542,#168,.T.);
#428=EDGE_CURVE('',#543,#541,#618,.F.);
#429=EDGE_CURVE('',#544,#543,#169,.T.);
#430=EDGE_CURVE('',#542,#544,#619,.F.);
#431=EDGE_CURVE('',#541,#545,#154,.T.);
#432=EDGE_CURVE('',#542,#546,#155,.T.);
#433=EDGE_CURVE('',#546,#547,#156,.T.);
#434=EDGE_CURVE('',#545,#547,#20,.T.);
#435=EDGE_CURVE('',#548,#549,#157,.T.);
#436=EDGE_CURVE('',#549,#540,#158,.T.);
#437=EDGE_CURVE('',#550,#539,#159,.T.);
#438=EDGE_CURVE('',#550,#548,#21,.T.);
#439=EDGE_CURVE('',#537,#551,#160,.T.);
#440=EDGE_CURVE('',#538,#552,#161,.T.);
#441=EDGE_CURVE('',#552,#553,#162,.T.);
#442=EDGE_CURVE('',#553,#551,#22,.T.);
#443=EDGE_CURVE('',#554,#555,#163,.T.);
#444=EDGE_CURVE('',#555,#544,#164,.T.);
#445=EDGE_CURVE('',#556,#543,#165,.T.);
#446=EDGE_CURVE('',#554,#556,#23,.T.);
#447=EDGE_CURVE('',#545,#556,#620,.T.);
#448=EDGE_CURVE('',#548,#547,#621,.T.);
#449=EDGE_CURVE('',#551,#550,#622,.T.);
#450=EDGE_CURVE('',#554,#553,#623,.T.);
#451=EDGE_CURVE('',#552,#549,#624,.T.);
#452=EDGE_CURVE('',#546,#555,#625,.T.);
#453=EDGE_CURVE('',#557,#557,#626,.T.);
#454=EDGE_CURVE('',#558,#558,#627,.T.);
#455=EDGE_CURVE('',#555,#552,#628,.T.);
#456=EDGE_CURVE('',#549,#546,#629,.T.);
#457=EDGE_CURVE('',#559,#559,#630,.T.);
#458=EDGE_CURVE('',#560,#561,#24,.T.);
#459=EDGE_CURVE('',#560,#562,#631,.T.);
#460=EDGE_CURVE('',#562,#563,#25,.T.);
#461=EDGE_CURVE('',#563,#561,#26,.T.);
#462=EDGE_CURVE('',#564,#562,#27,.T.);
#463=EDGE_CURVE('',#562,#565,#632,.T.);
#464=EDGE_CURVE('',#564,#565,#28,.T.);
#465=EDGE_CURVE('',#566,#566,#633,.T.);
#466=EDGE_CURVE('',#561,#567,#29,.T.);
#467=EDGE_CURVE('',#563,#568,#30,.T.);
#468=EDGE_CURVE('',#568,#567,#31,.T.);
#469=EDGE_CURVE('',#569,#570,#32,.T.);
#470=EDGE_CURVE('',#571,#569,#33,.T.);
#471=EDGE_CURVE('',#572,#571,#34,.T.);
#472=EDGE_CURVE('',#570,#572,#35,.T.);
#473=EDGE_CURVE('',#573,#574,#36,.T.);
#474=EDGE_CURVE('',#575,#573,#37,.T.);
#475=EDGE_CURVE('',#576,#575,#38,.T.);
#476=EDGE_CURVE('',#574,#576,#39,.T.);
#477=EDGE_CURVE('',#577,#578,#40,.T.);
#478=EDGE_CURVE('',#579,#577,#41,.T.);
#479=EDGE_CURVE('',#580,#579,#42,.T.);
#480=EDGE_CURVE('',#578,#580,#43,.T.);
#481=EDGE_CURVE('',#581,#582,#44,.T.);
#482=EDGE_CURVE('',#583,#581,#45,.T.);
#483=EDGE_CURVE('',#584,#583,#46,.T.);
#484=EDGE_CURVE('',#582,#584,#47,.T.);
#485=EDGE_CURVE('',#565,#585,#48,.T.);
#486=EDGE_CURVE('',#565,#560,#634,.T.);
#487=EDGE_CURVE('',#585,#560,#49,.T.);
#488=EDGE_CURVE('',#567,#586,#50,.T.);
#489=EDGE_CURVE('',#568,#587,#51,.T.);
#490=EDGE_CURVE('',#587,#586,#52,.T.);
#491=EDGE_CURVE('',#586,#585,#53,.T.);
#492=EDGE_CURVE('',#587,#564,#54,.T.);
#493=EDGE_CURVE('',#588,#569,#55,.T.);
#494=EDGE_CURVE('',#589,#588,#56,.T.);
#495=EDGE_CURVE('',#589,#571,#57,.T.);
#496=EDGE_CURVE('',#590,#570,#58,.T.);
#497=EDGE_CURVE('',#588,#590,#59,.T.);
#498=EDGE_CURVE('',#591,#572,#60,.T.);
#499=EDGE_CURVE('',#590,#591,#61,.T.);
#500=EDGE_CURVE('',#591,#589,#62,.T.);
#501=EDGE_CURVE('',#592,#573,#63,.T.);
#502=EDGE_CURVE('',#593,#592,#64,.T.);
#503=EDGE_CURVE('',#593,#575,#65,.T.);
#504=EDGE_CURVE('',#594,#574,#66,.T.);
#505=EDGE_CURVE('',#592,#594,#67,.T.);
#506=EDGE_CURVE('',#595,#576,#68,.T.);
#507=EDGE_CURVE('',#594,#595,#69,.T.);
#508=EDGE_CURVE('',#595,#593,#70,.T.);
#509=EDGE_CURVE('',#596,#577,#71,.T.);
#510=EDGE_CURVE('',#597,#596,#72,.T.);
#511=EDGE_CURVE('',#597,#579,#73,.T.);
#512=EDGE_CURVE('',#598,#578,#74,.T.);
#513=EDGE_CURVE('',#596,#598,#75,.T.);
#514=EDGE_CURVE('',#599,#580,#76,.T.);
#515=EDGE_CURVE('',#598,#599,#77,.T.);
#516=EDGE_CURVE('',#599,#597,#78,.T.);
#517=EDGE_CURVE('',#600,#581,#79,.T.);
#518=EDGE_CURVE('',#601,#600,#80,.T.);
#519=EDGE_CURVE('',#601,#583,#81,.T.);
#520=EDGE_CURVE('',#602,#582,#82,.T.);
#521=EDGE_CURVE('',#600,#602,#83,.T.);
#522=EDGE_CURVE('',#603,#584,#84,.T.);
#523=EDGE_CURVE('',#602,#603,#85,.T.);
#524=EDGE_CURVE('',#603,#601,#86,.T.);
#525=EDGE_CURVE('',#604,#604,#635,.T.);
#526=EDGE_CURVE('',#605,#605,#636,.F.);
#527=EDGE_CURVE('',#606,#606,#637,.T.);
#528=EDGE_CURVE('',#607,#607,#638,.T.);
#529=EDGE_CURVE('',#608,#608,#639,.T.);
#530=EDGE_CURVE('',#609,#609,#640,.T.);
#531=EDGE_CURVE('',#610,#610,#641,.T.);
#532=EDGE_CURVE('',#611,#611,#642,.T.);
#533=VERTEX_POINT('',#1684);
#534=VERTEX_POINT('',#1686);
#535=VERTEX_POINT('',#1689);
#536=VERTEX_POINT('',#1692);
#537=VERTEX_POINT('',#1699);
#538=VERTEX_POINT('',#1700);
#539=VERTEX_POINT('',#1702);
#540=VERTEX_POINT('',#1707);
#541=VERTEX_POINT('',#1714);
#542=VERTEX_POINT('',#1715);
#543=VERTEX_POINT('',#1717);
#544=VERTEX_POINT('',#1722);
#545=VERTEX_POINT('',#1726);
#546=VERTEX_POINT('',#1728);
#547=VERTEX_POINT('',#1730);
#548=VERTEX_POINT('',#1734);
#549=VERTEX_POINT('',#1735);
#550=VERTEX_POINT('',#1738);
#551=VERTEX_POINT('',#1742);
#552=VERTEX_POINT('',#1744);
#553=VERTEX_POINT('',#1746);
#554=VERTEX_POINT('',#1750);
#555=VERTEX_POINT('',#1751);
#556=VERTEX_POINT('',#1754);
#557=VERTEX_POINT('',#1769);
#558=VERTEX_POINT('',#1771);
#559=VERTEX_POINT('',#1779);
#560=VERTEX_POINT('',#1782);
#561=VERTEX_POINT('',#1783);
#562=VERTEX_POINT('',#1785);
#563=VERTEX_POINT('',#1787);
#564=VERTEX_POINT('',#1791);
#565=VERTEX_POINT('',#1793);
#566=VERTEX_POINT('',#1797);
#567=VERTEX_POINT('',#1799);
#568=VERTEX_POINT('',#1801);
#569=VERTEX_POINT('',#1804);
#570=VERTEX_POINT('',#1805);
#571=VERTEX_POINT('',#1807);
#572=VERTEX_POINT('',#1809);
#573=VERTEX_POINT('',#1812);
#574=VERTEX_POINT('',#1813);
#575=VERTEX_POINT('',#1815);
#576=VERTEX_POINT('',#1817);
#577=VERTEX_POINT('',#1820);
#578=VERTEX_POINT('',#1821);
#579=VERTEX_POINT('',#1823);
#580=VERTEX_POINT('',#1825);
#581=VERTEX_POINT('',#1828);
#582=VERTEX_POINT('',#1829);
#583=VERTEX_POINT('',#1831);
#584=VERTEX_POINT('',#1833);
#585=VERTEX_POINT('',#1837);
#586=VERTEX_POINT('',#1842);
#587=VERTEX_POINT('',#1844);
#588=VERTEX_POINT('',#1853);
#589=VERTEX_POINT('',#1855);
#590=VERTEX_POINT('',#1859);
#591=VERTEX_POINT('',#1863);
#592=VERTEX_POINT('',#1870);
#593=VERTEX_POINT('',#1872);
#594=VERTEX_POINT('',#1876);
#595=VERTEX_POINT('',#1880);
#596=VERTEX_POINT('',#1887);
#597=VERTEX_POINT('',#1889);
#598=VERTEX_POINT('',#1893);
#599=VERTEX_POINT('',#1897);
#600=VERTEX_POINT('',#1904);
#601=VERTEX_POINT('',#1906);
#602=VERTEX_POINT('',#1910);
#603=VERTEX_POINT('',#1914);
#604=VERTEX_POINT('',#1921);
#605=VERTEX_POINT('',#1924);
#606=VERTEX_POINT('',#1926);
#607=VERTEX_POINT('',#1929);
#608=VERTEX_POINT('',#1932);
#609=VERTEX_POINT('',#1935);
#610=VERTEX_POINT('',#1938);
#611=VERTEX_POINT('',#1941);
#612=CIRCLE('',#1310,0.35);
#613=CIRCLE('',#1311,1.125);
#614=CIRCLE('',#1313,0.25);
#615=CIRCLE('',#1315,0.35);
#616=CIRCLE('',#1318,0.3);
#617=CIRCLE('',#1319,0.35);
#618=CIRCLE('',#1321,0.3);
#619=CIRCLE('',#1322,0.35);
#620=CIRCLE('',#1340,0.3);
#621=CIRCLE('',#1341,0.35);
#622=CIRCLE('',#1342,0.3);
#623=CIRCLE('',#1343,0.35);
#624=CIRCLE('',#1347,0.35);
#625=CIRCLE('',#1349,0.35);
#626=CIRCLE('',#1351,1.125);
#627=CIRCLE('',#1352,1.125);
#628=CIRCLE('',#1354,0.35);
#629=CIRCLE('',#1355,0.35);
#630=CIRCLE('',#1359,1.21);
#631=CIRCLE('',#1361,1.75);
#632=CIRCLE('',#1363,1.75);
#633=CIRCLE('',#1365,1.125);
#634=CIRCLE('',#1367,1.75);
#635=CIRCLE('',#1393,1.75);
#636=CIRCLE('',#1395,1.7);
#637=CIRCLE('',#1396,1.58);
#638=CIRCLE('',#1398,1.21);
#639=CIRCLE('',#1400,1.51);
#640=CIRCLE('',#1402,1.51);
#641=CIRCLE('',#1404,1.45);
#642=CIRCLE('',#1406,1.45);
#643=EDGE_LOOP('',(#191));
#644=EDGE_LOOP('',(#192));
#645=EDGE_LOOP('',(#193));
#646=EDGE_LOOP('',(#194));
#647=EDGE_LOOP('',(#195));
#648=EDGE_LOOP('',(#196));
#649=EDGE_LOOP('',(#197));
#650=EDGE_LOOP('',(#198,#199,#200,#201));
#651=EDGE_LOOP('',(#202,#203,#204,#205));
#652=EDGE_LOOP('',(#206,#207,#208,#209,#210));
#653=EDGE_LOOP('',(#211,#212,#213,#214,#215));
#654=EDGE_LOOP('',(#216,#217,#218,#219,#220));
#655=EDGE_LOOP('',(#221,#222,#223,#224,#225));
#656=EDGE_LOOP('',(#226,#227,#228,#229,#230,#231,#232,#233));
#657=EDGE_LOOP('',(#234,#235,#236,#237));
#658=EDGE_LOOP('',(#238,#239,#240,#241));
#659=EDGE_LOOP('',(#242,#243,#244,#245));
#660=EDGE_LOOP('',(#246,#247,#248,#249));
#661=EDGE_LOOP('',(#250));
#662=EDGE_LOOP('',(#251));
#663=EDGE_LOOP('',(#252,#253,#254,#255));
#664=EDGE_LOOP('',(#256));
#665=EDGE_LOOP('',(#257,#258,#259,#260));
#666=EDGE_LOOP('',(#261,#262,#263,#264));
#667=EDGE_LOOP('',(#265));
#668=EDGE_LOOP('',(#266));
#669=EDGE_LOOP('',(#267,#268,#269,#270));
#670=EDGE_LOOP('',(#271,#272,#273));
#671=EDGE_LOOP('',(#274));
#672=EDGE_LOOP('',(#275,#276,#277,#278));
#673=EDGE_LOOP('',(#279,#280,#281,#282));
#674=EDGE_LOOP('',(#283,#284,#285,#286));
#675=EDGE_LOOP('',(#287,#288,#289,#290));
#676=EDGE_LOOP('',(#291,#292,#293,#294));
#677=EDGE_LOOP('',(#295,#296,#297));
#678=EDGE_LOOP('',(#298,#299,#300,#301));
#679=EDGE_LOOP('',(#302,#303,#304,#305,#306));
#680=EDGE_LOOP('',(#307,#308,#309,#310,#311));
#681=EDGE_LOOP('',(#312,#313,#314,#315,#316));
#682=EDGE_LOOP('',(#317,#318,#319,#320));
#683=EDGE_LOOP('',(#321,#322,#323,#324));
#684=EDGE_LOOP('',(#325,#326,#327,#328));
#685=EDGE_LOOP('',(#329,#330,#331,#332));
#686=EDGE_LOOP('',(#333,#334,#335,#336));
#687=EDGE_LOOP('',(#337,#338,#339,#340));
#688=EDGE_LOOP('',(#341,#342,#343,#344));
#689=EDGE_LOOP('',(#345,#346,#347,#348));
#690=EDGE_LOOP('',(#349,#350,#351,#352));
#691=EDGE_LOOP('',(#353,#354,#355,#356));
#692=EDGE_LOOP('',(#357,#358,#359,#360));
#693=EDGE_LOOP('',(#361,#362,#363,#364));
#694=EDGE_LOOP('',(#365,#366,#367,#368));
#695=EDGE_LOOP('',(#369,#370,#371,#372));
#696=EDGE_LOOP('',(#373,#374,#375,#376));
#697=EDGE_LOOP('',(#377,#378,#379,#380));
#698=EDGE_LOOP('',(#381,#382,#383,#384));
#699=EDGE_LOOP('',(#385,#386,#387,#388));
#700=EDGE_LOOP('',(#389,#390,#391,#392));
#701=EDGE_LOOP('',(#393,#394,#395,#396));
#702=EDGE_LOOP('',(#397));
#703=EDGE_LOOP('',(#398,#399,#400));
#704=EDGE_LOOP('',(#401));
#705=EDGE_LOOP('',(#402));
#706=EDGE_LOOP('',(#403));
#707=EDGE_LOOP('',(#404));
#708=EDGE_LOOP('',(#405));
#709=EDGE_LOOP('',(#406));
#710=EDGE_LOOP('',(#407));
#711=EDGE_LOOP('',(#408));
#712=EDGE_LOOP('',(#409));
#713=EDGE_LOOP('',(#410));
#714=EDGE_LOOP('',(#411));
#715=EDGE_LOOP('',(#412));
#716=EDGE_LOOP('',(#413));
#717=EDGE_LOOP('',(#414));
#718=EDGE_LOOP('',(#415));
#719=EDGE_LOOP('',(#416));
#720=EDGE_LOOP('',(#417));
#721=EDGE_LOOP('',(#418));
#722=FACE_BOUND('',#643,.T.);
#723=FACE_BOUND('',#644,.T.);
#724=FACE_BOUND('',#645,.T.);
#725=FACE_BOUND('',#646,.T.);
#726=FACE_BOUND('',#647,.T.);
#727=FACE_BOUND('',#648,.T.);
#728=FACE_BOUND('',#649,.T.);
#729=FACE_BOUND('',#650,.T.);
#730=FACE_BOUND('',#651,.T.);
#731=FACE_BOUND('',#652,.T.);
#732=FACE_BOUND('',#653,.T.);
#733=FACE_BOUND('',#654,.T.);
#734=FACE_BOUND('',#655,.T.);
#735=FACE_BOUND('',#656,.T.);
#736=FACE_BOUND('',#657,.T.);
#737=FACE_BOUND('',#658,.T.);
#738=FACE_BOUND('',#659,.T.);
#739=FACE_BOUND('',#660,.T.);
#740=FACE_BOUND('',#661,.T.);
#741=FACE_BOUND('',#662,.T.);
#742=FACE_BOUND('',#663,.T.);
#743=FACE_BOUND('',#664,.T.);
#744=FACE_BOUND('',#665,.T.);
#745=FACE_BOUND('',#666,.T.);
#746=FACE_BOUND('',#667,.T.);
#747=FACE_BOUND('',#668,.T.);
#748=FACE_BOUND('',#669,.T.);
#749=FACE_BOUND('',#670,.T.);
#750=FACE_BOUND('',#671,.T.);
#751=FACE_BOUND('',#672,.T.);
#752=FACE_BOUND('',#673,.T.);
#753=FACE_BOUND('',#674,.T.);
#754=FACE_BOUND('',#675,.T.);
#755=FACE_BOUND('',#676,.T.);
#756=FACE_BOUND('',#677,.T.);
#757=FACE_BOUND('',#678,.T.);
#758=FACE_BOUND('',#679,.T.);
#759=FACE_BOUND('',#680,.T.);
#760=FACE_BOUND('',#681,.T.);
#761=FACE_BOUND('',#682,.T.);
#762=FACE_BOUND('',#683,.T.);
#763=FACE_BOUND('',#684,.T.);
#764=FACE_BOUND('',#685,.T.);
#765=FACE_BOUND('',#686,.T.);
#766=FACE_BOUND('',#687,.T.);
#767=FACE_BOUND('',#688,.T.);
#768=FACE_BOUND('',#689,.T.);
#769=FACE_BOUND('',#690,.T.);
#770=FACE_BOUND('',#691,.T.);
#771=FACE_BOUND('',#692,.T.);
#772=FACE_BOUND('',#693,.T.);
#773=FACE_BOUND('',#694,.T.);
#774=FACE_BOUND('',#695,.T.);
#775=FACE_BOUND('',#696,.T.);
#776=FACE_BOUND('',#697,.T.);
#777=FACE_BOUND('',#698,.T.);
#778=FACE_BOUND('',#699,.T.);
#779=FACE_BOUND('',#700,.T.);
#780=FACE_BOUND('',#701,.T.);
#781=FACE_BOUND('',#702,.T.);
#782=FACE_BOUND('',#703,.T.);
#783=FACE_BOUND('',#704,.T.);
#784=FACE_BOUND('',#705,.T.);
#785=FACE_BOUND('',#706,.T.);
#786=FACE_BOUND('',#707,.T.);
#787=FACE_BOUND('',#708,.T.);
#788=FACE_BOUND('',#709,.T.);
#789=FACE_BOUND('',#710,.T.);
#790=FACE_BOUND('',#711,.T.);
#791=FACE_BOUND('',#712,.T.);
#792=FACE_BOUND('',#713,.T.);
#793=FACE_BOUND('',#714,.T.);
#794=FACE_BOUND('',#715,.T.);
#795=FACE_BOUND('',#716,.T.);
#796=FACE_BOUND('',#717,.T.);
#797=FACE_BOUND('',#718,.T.);
#798=FACE_BOUND('',#719,.T.);
#799=FACE_BOUND('',#720,.T.);
#800=FACE_BOUND('',#721,.T.);
#801=PLANE('',#1309);
#802=PLANE('',#1312);
#803=PLANE('',#1323);
#804=PLANE('',#1327);
#805=PLANE('',#1331);
#806=PLANE('',#1335);
#807=PLANE('',#1339);
#808=PLANE('',#1353);
#809=PLANE('',#1358);
#810=PLANE('',#1360);
#811=PLANE('',#1362);
#812=PLANE('',#1364);
#813=PLANE('',#1366);
#814=PLANE('',#1368);
#815=PLANE('',#1369);
#816=PLANE('',#1370);
#817=PLANE('',#1371);
#818=PLANE('',#1372);
#819=PLANE('',#1373);
#820=PLANE('',#1374);
#821=PLANE('',#1375);
#822=PLANE('',#1376);
#823=PLANE('',#1377);
#824=PLANE('',#1378);
#825=PLANE('',#1379);
#826=PLANE('',#1380);
#827=PLANE('',#1381);
#828=PLANE('',#1382);
#829=PLANE('',#1383);
#830=PLANE('',#1384);
#831=PLANE('',#1385);
#832=PLANE('',#1386);
#833=PLANE('',#1387);
#834=PLANE('',#1388);
#835=PLANE('',#1389);
#836=PLANE('',#1390);
#837=PLANE('',#1391);
#838=PLANE('',#1394);
#839=STYLED_ITEM('',(#897),#1246);
#840=STYLED_ITEM('',(#898),#1247);
#841=STYLED_ITEM('',(#899),#1248);
#842=STYLED_ITEM('',(#900),#1249);
#843=STYLED_ITEM('',(#901),#1250);
#844=STYLED_ITEM('',(#902),#1251);
#845=STYLED_ITEM('',(#903),#1252);
#846=STYLED_ITEM('',(#904),#1253);
#847=STYLED_ITEM('',(#905),#1254);
#848=STYLED_ITEM('',(#906),#1255);
#849=STYLED_ITEM('',(#907),#1256);
#850=STYLED_ITEM('',(#908),#1257);
#851=STYLED_ITEM('',(#909),#1258);
#852=STYLED_ITEM('',(#910),#1259);
#853=STYLED_ITEM('',(#911),#1260);
#854=STYLED_ITEM('',(#912),#1261);
#855=STYLED_ITEM('',(#913),#1262);
#856=STYLED_ITEM('',(#914),#1263);
#857=STYLED_ITEM('',(#915),#1264);
#858=STYLED_ITEM('',(#916),#1265);
#859=STYLED_ITEM('',(#917),#1266);
#860=STYLED_ITEM('',(#918),#1267);
#861=STYLED_ITEM('',(#919),#1268);
#862=STYLED_ITEM('',(#920),#1269);
#863=STYLED_ITEM('',(#921),#1270);
#864=STYLED_ITEM('',(#922),#1271);
#865=STYLED_ITEM('',(#923),#1272);
#866=STYLED_ITEM('',(#924),#1273);
#867=STYLED_ITEM('',(#925),#1274);
#868=STYLED_ITEM('',(#926),#1275);
#869=STYLED_ITEM('',(#927),#1276);
#870=STYLED_ITEM('',(#928),#1277);
#871=STYLED_ITEM('',(#929),#1278);
#872=STYLED_ITEM('',(#930),#1279);
#873=STYLED_ITEM('',(#931),#1280);
#874=STYLED_ITEM('',(#932),#1281);
#875=STYLED_ITEM('',(#933),#1282);
#876=STYLED_ITEM('',(#934),#1283);
#877=STYLED_ITEM('',(#935),#1284);
#878=STYLED_ITEM('',(#936),#1285);
#879=STYLED_ITEM('',(#937),#1286);
#880=STYLED_ITEM('',(#938),#1287);
#881=STYLED_ITEM('',(#939),#1288);
#882=STYLED_ITEM('',(#940),#1289);
#883=STYLED_ITEM('',(#941),#1290);
#884=STYLED_ITEM('',(#942),#1291);
#885=STYLED_ITEM('',(#943),#1292);
#886=STYLED_ITEM('',(#944),#1293);
#887=STYLED_ITEM('',(#945),#1294);
#888=STYLED_ITEM('',(#946),#1295);
#889=STYLED_ITEM('',(#947),#1296);
#890=STYLED_ITEM('',(#948),#1297);
#891=STYLED_ITEM('',(#949),#1298);
#892=STYLED_ITEM('',(#950),#1299);
#893=STYLED_ITEM('',(#951),#1300);
#894=STYLED_ITEM('',(#952),#1301);
#895=STYLED_ITEM('',(#953),#1302);
#896=STYLED_ITEM('',(#954),#1303);
#897=PRESENTATION_STYLE_ASSIGNMENT((#955));
#898=PRESENTATION_STYLE_ASSIGNMENT((#956));
#899=PRESENTATION_STYLE_ASSIGNMENT((#957));
#900=PRESENTATION_STYLE_ASSIGNMENT((#958));
#901=PRESENTATION_STYLE_ASSIGNMENT((#959));
#902=PRESENTATION_STYLE_ASSIGNMENT((#960));
#903=PRESENTATION_STYLE_ASSIGNMENT((#961));
#904=PRESENTATION_STYLE_ASSIGNMENT((#962));
#905=PRESENTATION_STYLE_ASSIGNMENT((#963));
#906=PRESENTATION_STYLE_ASSIGNMENT((#964));
#907=PRESENTATION_STYLE_ASSIGNMENT((#965));
#908=PRESENTATION_STYLE_ASSIGNMENT((#966));
#909=PRESENTATION_STYLE_ASSIGNMENT((#967));
#910=PRESENTATION_STYLE_ASSIGNMENT((#968));
#911=PRESENTATION_STYLE_ASSIGNMENT((#969));
#912=PRESENTATION_STYLE_ASSIGNMENT((#970));
#913=PRESENTATION_STYLE_ASSIGNMENT((#971));
#914=PRESENTATION_STYLE_ASSIGNMENT((#972));
#915=PRESENTATION_STYLE_ASSIGNMENT((#973));
#916=PRESENTATION_STYLE_ASSIGNMENT((#974));
#917=PRESENTATION_STYLE_ASSIGNMENT((#975));
#918=PRESENTATION_STYLE_ASSIGNMENT((#976));
#919=PRESENTATION_STYLE_ASSIGNMENT((#977));
#920=PRESENTATION_STYLE_ASSIGNMENT((#978));
#921=PRESENTATION_STYLE_ASSIGNMENT((#979));
#922=PRESENTATION_STYLE_ASSIGNMENT((#980));
#923=PRESENTATION_STYLE_ASSIGNMENT((#981));
#924=PRESENTATION_STYLE_ASSIGNMENT((#982));
#925=PRESENTATION_STYLE_ASSIGNMENT((#983));
#926=PRESENTATION_STYLE_ASSIGNMENT((#984));
#927=PRESENTATION_STYLE_ASSIGNMENT((#985));
#928=PRESENTATION_STYLE_ASSIGNMENT((#986));
#929=PRESENTATION_STYLE_ASSIGNMENT((#987));
#930=PRESENTATION_STYLE_ASSIGNMENT((#988));
#931=PRESENTATION_STYLE_ASSIGNMENT((#989));
#932=PRESENTATION_STYLE_ASSIGNMENT((#990));
#933=PRESENTATION_STYLE_ASSIGNMENT((#991));
#934=PRESENTATION_STYLE_ASSIGNMENT((#992));
#935=PRESENTATION_STYLE_ASSIGNMENT((#993));
#936=PRESENTATION_STYLE_ASSIGNMENT((#994));
#937=PRESENTATION_STYLE_ASSIGNMENT((#995));
#938=PRESENTATION_STYLE_ASSIGNMENT((#996));
#939=PRESENTATION_STYLE_ASSIGNMENT((#997));
#940=PRESENTATION_STYLE_ASSIGNMENT((#998));
#941=PRESENTATION_STYLE_ASSIGNMENT((#999));
#942=PRESENTATION_STYLE_ASSIGNMENT((#1000));
#943=PRESENTATION_STYLE_ASSIGNMENT((#1001));
#944=PRESENTATION_STYLE_ASSIGNMENT((#1002));
#945=PRESENTATION_STYLE_ASSIGNMENT((#1003));
#946=PRESENTATION_STYLE_ASSIGNMENT((#1004));
#947=PRESENTATION_STYLE_ASSIGNMENT((#1005));
#948=PRESENTATION_STYLE_ASSIGNMENT((#1006));
#949=PRESENTATION_STYLE_ASSIGNMENT((#1007));
#950=PRESENTATION_STYLE_ASSIGNMENT((#1008));
#951=PRESENTATION_STYLE_ASSIGNMENT((#1009));
#952=PRESENTATION_STYLE_ASSIGNMENT((#1010));
#953=PRESENTATION_STYLE_ASSIGNMENT((#1011));
#954=PRESENTATION_STYLE_ASSIGNMENT((#1012));
#955=SURFACE_STYLE_USAGE(.BOTH.,#1013);
#956=SURFACE_STYLE_USAGE(.BOTH.,#1014);
#957=SURFACE_STYLE_USAGE(.BOTH.,#1015);
#958=SURFACE_STYLE_USAGE(.BOTH.,#1016);
#959=SURFACE_STYLE_USAGE(.BOTH.,#1017);
#960=SURFACE_STYLE_USAGE(.BOTH.,#1018);
#961=SURFACE_STYLE_USAGE(.BOTH.,#1019);
#962=SURFACE_STYLE_USAGE(.BOTH.,#1020);
#963=SURFACE_STYLE_USAGE(.BOTH.,#1021);
#964=SURFACE_STYLE_USAGE(.BOTH.,#1022);
#965=SURFACE_STYLE_USAGE(.BOTH.,#1023);
#966=SURFACE_STYLE_USAGE(.BOTH.,#1024);
#967=SURFACE_STYLE_USAGE(.BOTH.,#1025);
#968=SURFACE_STYLE_USAGE(.BOTH.,#1026);
#969=SURFACE_STYLE_USAGE(.BOTH.,#1027);
#970=SURFACE_STYLE_USAGE(.BOTH.,#1028);
#971=SURFACE_STYLE_USAGE(.BOTH.,#1029);
#972=SURFACE_STYLE_USAGE(.BOTH.,#1030);
#973=SURFACE_STYLE_USAGE(.BOTH.,#1031);
#974=SURFACE_STYLE_USAGE(.BOTH.,#1032);
#975=SURFACE_STYLE_USAGE(.BOTH.,#1033);
#976=SURFACE_STYLE_USAGE(.BOTH.,#1034);
#977=SURFACE_STYLE_USAGE(.BOTH.,#1035);
#978=SURFACE_STYLE_USAGE(.BOTH.,#1036);
#979=SURFACE_STYLE_USAGE(.BOTH.,#1037);
#980=SURFACE_STYLE_USAGE(.BOTH.,#1038);
#981=SURFACE_STYLE_USAGE(.BOTH.,#1039);
#982=SURFACE_STYLE_USAGE(.BOTH.,#1040);
#983=SURFACE_STYLE_USAGE(.BOTH.,#1041);
#984=SURFACE_STYLE_USAGE(.BOTH.,#1042);
#985=SURFACE_STYLE_USAGE(.BOTH.,#1043);
#986=SURFACE_STYLE_USAGE(.BOTH.,#1044);
#987=SURFACE_STYLE_USAGE(.BOTH.,#1045);
#988=SURFACE_STYLE_USAGE(.BOTH.,#1046);
#989=SURFACE_STYLE_USAGE(.BOTH.,#1047);
#990=SURFACE_STYLE_USAGE(.BOTH.,#1048);
#991=SURFACE_STYLE_USAGE(.BOTH.,#1049);
#992=SURFACE_STYLE_USAGE(.BOTH.,#1050);
#993=SURFACE_STYLE_USAGE(.BOTH.,#1051);
#994=SURFACE_STYLE_USAGE(.BOTH.,#1052);
#995=SURFACE_STYLE_USAGE(.BOTH.,#1053);
#996=SURFACE_STYLE_USAGE(.BOTH.,#1054);
#997=SURFACE_STYLE_USAGE(.BOTH.,#1055);
#998=SURFACE_STYLE_USAGE(.BOTH.,#1056);
#999=SURFACE_STYLE_USAGE(.BOTH.,#1057);
#1000=SURFACE_STYLE_USAGE(.BOTH.,#1058);
#1001=SURFACE_STYLE_USAGE(.BOTH.,#1059);
#1002=SURFACE_STYLE_USAGE(.BOTH.,#1060);
#1003=SURFACE_STYLE_USAGE(.BOTH.,#1061);
#1004=SURFACE_STYLE_USAGE(.BOTH.,#1062);
#1005=SURFACE_STYLE_USAGE(.BOTH.,#1063);
#1006=SURFACE_STYLE_USAGE(.BOTH.,#1064);
#1007=SURFACE_STYLE_USAGE(.BOTH.,#1065);
#1008=SURFACE_STYLE_USAGE(.BOTH.,#1066);
#1009=SURFACE_STYLE_USAGE(.BOTH.,#1067);
#1010=SURFACE_STYLE_USAGE(.BOTH.,#1068);
#1011=SURFACE_STYLE_USAGE(.BOTH.,#1069);
#1012=SURFACE_STYLE_USAGE(.BOTH.,#1070);
#1013=SURFACE_SIDE_STYLE('',(#1071));
#1014=SURFACE_SIDE_STYLE('',(#1072));
#1015=SURFACE_SIDE_STYLE('',(#1073));
#1016=SURFACE_SIDE_STYLE('',(#1074));
#1017=SURFACE_SIDE_STYLE('',(#1075));
#1018=SURFACE_SIDE_STYLE('',(#1076));
#1019=SURFACE_SIDE_STYLE('',(#1077));
#1020=SURFACE_SIDE_STYLE('',(#1078));
#1021=SURFACE_SIDE_STYLE('',(#1079));
#1022=SURFACE_SIDE_STYLE('',(#1080));
#1023=SURFACE_SIDE_STYLE('',(#1081));
#1024=SURFACE_SIDE_STYLE('',(#1082));
#1025=SURFACE_SIDE_STYLE('',(#1083));
#1026=SURFACE_SIDE_STYLE('',(#1084));
#1027=SURFACE_SIDE_STYLE('',(#1085));
#1028=SURFACE_SIDE_STYLE('',(#1086));
#1029=SURFACE_SIDE_STYLE('',(#1087));
#1030=SURFACE_SIDE_STYLE('',(#1088));
#1031=SURFACE_SIDE_STYLE('',(#1089));
#1032=SURFACE_SIDE_STYLE('',(#1090));
#1033=SURFACE_SIDE_STYLE('',(#1091));
#1034=SURFACE_SIDE_STYLE('',(#1092));
#1035=SURFACE_SIDE_STYLE('',(#1093));
#1036=SURFACE_SIDE_STYLE('',(#1094));
#1037=SURFACE_SIDE_STYLE('',(#1095));
#1038=SURFACE_SIDE_STYLE('',(#1096));
#1039=SURFACE_SIDE_STYLE('',(#1097));
#1040=SURFACE_SIDE_STYLE('',(#1098));
#1041=SURFACE_SIDE_STYLE('',(#1099));
#1042=SURFACE_SIDE_STYLE('',(#1100));
#1043=SURFACE_SIDE_STYLE('',(#1101));
#1044=SURFACE_SIDE_STYLE('',(#1102));
#1045=SURFACE_SIDE_STYLE('',(#1103));
#1046=SURFACE_SIDE_STYLE('',(#1104));
#1047=SURFACE_SIDE_STYLE('',(#1105));
#1048=SURFACE_SIDE_STYLE('',(#1106));
#1049=SURFACE_SIDE_STYLE('',(#1107));
#1050=SURFACE_SIDE_STYLE('',(#1108));
#1051=SURFACE_SIDE_STYLE('',(#1109));
#1052=SURFACE_SIDE_STYLE('',(#1110));
#1053=SURFACE_SIDE_STYLE('',(#1111));
#1054=SURFACE_SIDE_STYLE('',(#1112));
#1055=SURFACE_SIDE_STYLE('',(#1113));
#1056=SURFACE_SIDE_STYLE('',(#1114));
#1057=SURFACE_SIDE_STYLE('',(#1115));
#1058=SURFACE_SIDE_STYLE('',(#1116));
#1059=SURFACE_SIDE_STYLE('',(#1117));
#1060=SURFACE_SIDE_STYLE('',(#1118));
#1061=SURFACE_SIDE_STYLE('',(#1119));
#1062=SURFACE_SIDE_STYLE('',(#1120));
#1063=SURFACE_SIDE_STYLE('',(#1121));
#1064=SURFACE_SIDE_STYLE('',(#1122));
#1065=SURFACE_SIDE_STYLE('',(#1123));
#1066=SURFACE_SIDE_STYLE('',(#1124));
#1067=SURFACE_SIDE_STYLE('',(#1125));
#1068=SURFACE_SIDE_STYLE('',(#1126));
#1069=SURFACE_SIDE_STYLE('',(#1127));
#1070=SURFACE_SIDE_STYLE('',(#1128));
#1071=SURFACE_STYLE_FILL_AREA(#1129);
#1072=SURFACE_STYLE_FILL_AREA(#1130);
#1073=SURFACE_STYLE_FILL_AREA(#1131);
#1074=SURFACE_STYLE_FILL_AREA(#1132);
#1075=SURFACE_STYLE_FILL_AREA(#1133);
#1076=SURFACE_STYLE_FILL_AREA(#1134);
#1077=SURFACE_STYLE_FILL_AREA(#1135);
#1078=SURFACE_STYLE_FILL_AREA(#1136);
#1079=SURFACE_STYLE_FILL_AREA(#1137);
#1080=SURFACE_STYLE_FILL_AREA(#1138);
#1081=SURFACE_STYLE_FILL_AREA(#1139);
#1082=SURFACE_STYLE_FILL_AREA(#1140);
#1083=SURFACE_STYLE_FILL_AREA(#1141);
#1084=SURFACE_STYLE_FILL_AREA(#1142);
#1085=SURFACE_STYLE_FILL_AREA(#1143);
#1086=SURFACE_STYLE_FILL_AREA(#1144);
#1087=SURFACE_STYLE_FILL_AREA(#1145);
#1088=SURFACE_STYLE_FILL_AREA(#1146);
#1089=SURFACE_STYLE_FILL_AREA(#1147);
#1090=SURFACE_STYLE_FILL_AREA(#1148);
#1091=SURFACE_STYLE_FILL_AREA(#1149);
#1092=SURFACE_STYLE_FILL_AREA(#1150);
#1093=SURFACE_STYLE_FILL_AREA(#1151);
#1094=SURFACE_STYLE_FILL_AREA(#1152);
#1095=SURFACE_STYLE_FILL_AREA(#1153);
#1096=SURFACE_STYLE_FILL_AREA(#1154);
#1097=SURFACE_STYLE_FILL_AREA(#1155);
#1098=SURFACE_STYLE_FILL_AREA(#1156);
#1099=SURFACE_STYLE_FILL_AREA(#1157);
#1100=SURFACE_STYLE_FILL_AREA(#1158);
#1101=SURFACE_STYLE_FILL_AREA(#1159);
#1102=SURFACE_STYLE_FILL_AREA(#1160);
#1103=SURFACE_STYLE_FILL_AREA(#1161);
#1104=SURFACE_STYLE_FILL_AREA(#1162);
#1105=SURFACE_STYLE_FILL_AREA(#1163);
#1106=SURFACE_STYLE_FILL_AREA(#1164);
#1107=SURFACE_STYLE_FILL_AREA(#1165);
#1108=SURFACE_STYLE_FILL_AREA(#1166);
#1109=SURFACE_STYLE_FILL_AREA(#1167);
#1110=SURFACE_STYLE_FILL_AREA(#1168);
#1111=SURFACE_STYLE_FILL_AREA(#1169);
#1112=SURFACE_STYLE_FILL_AREA(#1170);
#1113=SURFACE_STYLE_FILL_AREA(#1171);
#1114=SURFACE_STYLE_FILL_AREA(#1172);
#1115=SURFACE_STYLE_FILL_AREA(#1173);
#1116=SURFACE_STYLE_FILL_AREA(#1174);
#1117=SURFACE_STYLE_FILL_AREA(#1175);
#1118=SURFACE_STYLE_FILL_AREA(#1176);
#1119=SURFACE_STYLE_FILL_AREA(#1177);
#1120=SURFACE_STYLE_FILL_AREA(#1178);
#1121=SURFACE_STYLE_FILL_AREA(#1179);
#1122=SURFACE_STYLE_FILL_AREA(#1180);
#1123=SURFACE_STYLE_FILL_AREA(#1181);
#1124=SURFACE_STYLE_FILL_AREA(#1182);
#1125=SURFACE_STYLE_FILL_AREA(#1183);
#1126=SURFACE_STYLE_FILL_AREA(#1184);
#1127=SURFACE_STYLE_FILL_AREA(#1185);
#1128=SURFACE_STYLE_FILL_AREA(#1186);
#1129=FILL_AREA_STYLE('',(#1187));
#1130=FILL_AREA_STYLE('',(#1188));
#1131=FILL_AREA_STYLE('',(#1189));
#1132=FILL_AREA_STYLE('',(#1190));
#1133=FILL_AREA_STYLE('',(#1191));
#1134=FILL_AREA_STYLE('',(#1192));
#1135=FILL_AREA_STYLE('',(#1193));
#1136=FILL_AREA_STYLE('',(#1194));
#1137=FILL_AREA_STYLE('',(#1195));
#1138=FILL_AREA_STYLE('',(#1196));
#1139=FILL_AREA_STYLE('',(#1197));
#1140=FILL_AREA_STYLE('',(#1198));
#1141=FILL_AREA_STYLE('',(#1199));
#1142=FILL_AREA_STYLE('',(#1200));
#1143=FILL_AREA_STYLE('',(#1201));
#1144=FILL_AREA_STYLE('',(#1202));
#1145=FILL_AREA_STYLE('',(#1203));
#1146=FILL_AREA_STYLE('',(#1204));
#1147=FILL_AREA_STYLE('',(#1205));
#1148=FILL_AREA_STYLE('',(#1206));
#1149=FILL_AREA_STYLE('',(#1207));
#1150=FILL_AREA_STYLE('',(#1208));
#1151=FILL_AREA_STYLE('',(#1209));
#1152=FILL_AREA_STYLE('',(#1210));
#1153=FILL_AREA_STYLE('',(#1211));
#1154=FILL_AREA_STYLE('',(#1212));
#1155=FILL_AREA_STYLE('',(#1213));
#1156=FILL_AREA_STYLE('',(#1214));
#1157=FILL_AREA_STYLE('',(#1215));
#1158=FILL_AREA_STYLE('',(#1216));
#1159=FILL_AREA_STYLE('',(#1217));
#1160=FILL_AREA_STYLE('',(#1218));
#1161=FILL_AREA_STYLE('',(#1219));
#1162=FILL_AREA_STYLE('',(#1220));
#1163=FILL_AREA_STYLE('',(#1221));
#1164=FILL_AREA_STYLE('',(#1222));
#1165=FILL_AREA_STYLE('',(#1223));
#1166=FILL_AREA_STYLE('',(#1224));
#1167=FILL_AREA_STYLE('',(#1225));
#1168=FILL_AREA_STYLE('',(#1226));
#1169=FILL_AREA_STYLE('',(#1227));
#1170=FILL_AREA_STYLE('',(#1228));
#1171=FILL_AREA_STYLE('',(#1229));
#1172=FILL_AREA_STYLE('',(#1230));
#1173=FILL_AREA_STYLE('',(#1231));
#1174=FILL_AREA_STYLE('',(#1232));
#1175=FILL_AREA_STYLE('',(#1233));
#1176=FILL_AREA_STYLE('',(#1234));
#1177=FILL_AREA_STYLE('',(#1235));
#1178=FILL_AREA_STYLE('',(#1236));
#1179=FILL_AREA_STYLE('',(#1237));
#1180=FILL_AREA_STYLE('',(#1238));
#1181=FILL_AREA_STYLE('',(#1239));
#1182=FILL_AREA_STYLE('',(#1240));
#1183=FILL_AREA_STYLE('',(#1241));
#1184=FILL_AREA_STYLE('',(#1242));
#1185=FILL_AREA_STYLE('',(#1243));
#1186=FILL_AREA_STYLE('',(#1244));
#1187=FILL_AREA_STYLE_COLOUR('',#1245);
#1188=FILL_AREA_STYLE_COLOUR('',#190);
#1189=FILL_AREA_STYLE_COLOUR('',#190);
#1190=FILL_AREA_STYLE_COLOUR('',#190);
#1191=FILL_AREA_STYLE_COLOUR('',#190);
#1192=FILL_AREA_STYLE_COLOUR('',#190);
#1193=FILL_AREA_STYLE_COLOUR('',#190);
#1194=FILL_AREA_STYLE_COLOUR('',#190);
#1195=FILL_AREA_STYLE_COLOUR('',#190);
#1196=FILL_AREA_STYLE_COLOUR('',#190);
#1197=FILL_AREA_STYLE_COLOUR('',#190);
#1198=FILL_AREA_STYLE_COLOUR('',#190);
#1199=FILL_AREA_STYLE_COLOUR('',#190);
#1200=FILL_AREA_STYLE_COLOUR('',#190);
#1201=FILL_AREA_STYLE_COLOUR('',#190);
#1202=FILL_AREA_STYLE_COLOUR('',#1245);
#1203=FILL_AREA_STYLE_COLOUR('',#1245);
#1204=FILL_AREA_STYLE_COLOUR('',#1245);
#1205=FILL_AREA_STYLE_COLOUR('',#1245);
#1206=FILL_AREA_STYLE_COLOUR('',#190);
#1207=FILL_AREA_STYLE_COLOUR('',#190);
#1208=FILL_AREA_STYLE_COLOUR('',#190);
#1209=FILL_AREA_STYLE_COLOUR('',#190);
#1210=FILL_AREA_STYLE_COLOUR('',#190);
#1211=FILL_AREA_STYLE_COLOUR('',#190);
#1212=FILL_AREA_STYLE_COLOUR('',#190);
#1213=FILL_AREA_STYLE_COLOUR('',#190);
#1214=FILL_AREA_STYLE_COLOUR('',#190);
#1215=FILL_AREA_STYLE_COLOUR('',#190);
#1216=FILL_AREA_STYLE_COLOUR('',#190);
#1217=FILL_AREA_STYLE_COLOUR('',#190);
#1218=FILL_AREA_STYLE_COLOUR('',#190);
#1219=FILL_AREA_STYLE_COLOUR('',#190);
#1220=FILL_AREA_STYLE_COLOUR('',#190);
#1221=FILL_AREA_STYLE_COLOUR('',#190);
#1222=FILL_AREA_STYLE_COLOUR('',#190);
#1223=FILL_AREA_STYLE_COLOUR('',#190);
#1224=FILL_AREA_STYLE_COLOUR('',#190);
#1225=FILL_AREA_STYLE_COLOUR('',#190);
#1226=FILL_AREA_STYLE_COLOUR('',#190);
#1227=FILL_AREA_STYLE_COLOUR('',#190);
#1228=FILL_AREA_STYLE_COLOUR('',#190);
#1229=FILL_AREA_STYLE_COLOUR('',#190);
#1230=FILL_AREA_STYLE_COLOUR('',#190);
#1231=FILL_AREA_STYLE_COLOUR('',#190);
#1232=FILL_AREA_STYLE_COLOUR('',#190);
#1233=FILL_AREA_STYLE_COLOUR('',#190);
#1234=FILL_AREA_STYLE_COLOUR('',#190);
#1235=FILL_AREA_STYLE_COLOUR('',#190);
#1236=FILL_AREA_STYLE_COLOUR('',#190);
#1237=FILL_AREA_STYLE_COLOUR('',#190);
#1238=FILL_AREA_STYLE_COLOUR('',#190);
#1239=FILL_AREA_STYLE_COLOUR('',#190);
#1240=FILL_AREA_STYLE_COLOUR('',#190);
#1241=FILL_AREA_STYLE_COLOUR('',#190);
#1242=FILL_AREA_STYLE_COLOUR('',#190);
#1243=FILL_AREA_STYLE_COLOUR('',#190);
#1244=FILL_AREA_STYLE_COLOUR('',#190);
#1245=DRAUGHTING_PRE_DEFINED_COLOUR('white');
#1246=ADVANCED_FACE('',(#722,#723),#801,.F.);
#1247=ADVANCED_FACE('',(#724),#802,.F.);
#1248=ADVANCED_FACE('',(#725,#726),#183,.T.);
#1249=ADVANCED_FACE('',(#727,#728),#170,.T.);
#1250=ADVANCED_FACE('',(#729),#184,.T.);
#1251=ADVANCED_FACE('',(#730),#185,.T.);
#1252=ADVANCED_FACE('',(#731),#803,.T.);
#1253=ADVANCED_FACE('',(#732),#804,.T.);
#1254=ADVANCED_FACE('',(#733),#805,.T.);
#1255=ADVANCED_FACE('',(#734),#806,.T.);
#1256=ADVANCED_FACE('',(#735),#807,.F.);
#1257=ADVANCED_FACE('',(#736),#171,.F.);
#1258=ADVANCED_FACE('',(#737),#172,.F.);
#1259=ADVANCED_FACE('',(#738),#173,.T.);
#1260=ADVANCED_FACE('',(#739),#174,.T.);
#1261=ADVANCED_FACE('',(#740,#741),#175,.T.);
#1262=ADVANCED_FACE('',(#742,#743),#808,.F.);
#1263=ADVANCED_FACE('',(#744),#176,.F.);
#1264=ADVANCED_FACE('',(#745),#177,.F.);
#1265=ADVANCED_FACE('',(#746,#747),#809,.F.);
#1266=ADVANCED_FACE('',(#748),#810,.T.);
#1267=ADVANCED_FACE('',(#749),#811,.T.);
#1268=ADVANCED_FACE('',(#750,#751,#752,#753,#754,#755),#812,.T.);
#1269=ADVANCED_FACE('',(#756),#813,.T.);
#1270=ADVANCED_FACE('',(#757),#814,.T.);
#1271=ADVANCED_FACE('',(#758),#815,.T.);
#1272=ADVANCED_FACE('',(#759),#816,.F.);
#1273=ADVANCED_FACE('',(#760),#817,.T.);
#1274=ADVANCED_FACE('',(#761),#818,.F.);
#1275=ADVANCED_FACE('',(#762),#819,.F.);
#1276=ADVANCED_FACE('',(#763),#820,.F.);
#1277=ADVANCED_FACE('',(#764),#821,.F.);
#1278=ADVANCED_FACE('',(#765),#822,.T.);
#1279=ADVANCED_FACE('',(#766),#823,.F.);
#1280=ADVANCED_FACE('',(#767),#824,.F.);
#1281=ADVANCED_FACE('',(#768),#825,.F.);
#1282=ADVANCED_FACE('',(#769),#826,.F.);
#1283=ADVANCED_FACE('',(#770),#827,.T.);
#1284=ADVANCED_FACE('',(#771),#828,.F.);
#1285=ADVANCED_FACE('',(#772),#829,.F.);
#1286=ADVANCED_FACE('',(#773),#830,.F.);
#1287=ADVANCED_FACE('',(#774),#831,.F.);
#1288=ADVANCED_FACE('',(#775),#832,.T.);
#1289=ADVANCED_FACE('',(#776),#833,.F.);
#1290=ADVANCED_FACE('',(#777),#834,.F.);
#1291=ADVANCED_FACE('',(#778),#835,.F.);
#1292=ADVANCED_FACE('',(#779),#836,.F.);
#1293=ADVANCED_FACE('',(#780),#837,.T.);
#1294=ADVANCED_FACE('',(#781,#782),#178,.T.);
#1295=ADVANCED_FACE('',(#783,#784),#838,.F.);
#1296=ADVANCED_FACE('',(#785,#786),#179,.F.);
#1297=ADVANCED_FACE('',(#787,#788),#186,.F.);
#1298=ADVANCED_FACE('',(#789,#790),#180,.F.);
#1299=ADVANCED_FACE('',(#791,#792),#187,.F.);
#1300=ADVANCED_FACE('',(#793,#794),#181,.F.);
#1301=ADVANCED_FACE('',(#795,#796),#188,.F.);
#1302=ADVANCED_FACE('',(#797,#798),#189,.T.);
#1303=ADVANCED_FACE('',(#799,#800),#182,.F.);
#1304=CLOSED_SHELL('',(#1246,#1247,#1248,#1249,#1250,#1251,#1252,#1253,
#1254,#1255,#1256,#1257,#1258,#1259,#1260,#1261,#1262,#1263,#1264,#1265,
#1266,#1267,#1268,#1269,#1270,#1271,#1272,#1273,#1274,#1275,#1276,#1277,
#1278,#1279,#1280,#1281,#1282,#1283,#1284,#1285,#1286,#1287,#1288,#1289,
#1290,#1291,#1292,#1293,#1294,#1295,#1296,#1297,#1298,#1299,#1300,#1301,
#1302,#1303));
#1305=MANIFOLD_SOLID_BREP('66011002111501_Insulator',#1304);
#1306=SHAPE_DEFINITION_REPRESENTATION(#1951,#1307);
#1307=SHAPE_REPRESENTATION('66011002111501',(#1308),#1946);
#1308=AXIS2_PLACEMENT_3D('',#1681,#1410,#1411);
#1309=AXIS2_PLACEMENT_3D('',#1682,#1412,#1413);
#1310=AXIS2_PLACEMENT_3D('',#1683,#1414,#1415);
#1311=AXIS2_PLACEMENT_3D('',#1685,#1416,#1417);
#1312=AXIS2_PLACEMENT_3D('',#1687,#1418,#1419);
#1313=AXIS2_PLACEMENT_3D('',#1688,#1420,#1421);
#1314=AXIS2_PLACEMENT_3D('',#1690,#1422,#1423);
#1315=AXIS2_PLACEMENT_3D('',#1691,#1424,#1425);
#1316=AXIS2_PLACEMENT_3D('',#1693,#1426,#1427);
#1317=AXIS2_PLACEMENT_3D('',#1694,#1428,#1429);
#1318=AXIS2_PLACEMENT_3D('',#1701,#1430,#1431);
#1319=AXIS2_PLACEMENT_3D('',#1708,#1432,#1433);
#1320=AXIS2_PLACEMENT_3D('',#1709,#1434,#1435);
#1321=AXIS2_PLACEMENT_3D('',#1716,#1436,#1437);
#1322=AXIS2_PLACEMENT_3D('',#1723,#1438,#1439);
#1323=AXIS2_PLACEMENT_3D('',#1724,#1440,#1441);
#1324=AXIS2_PLACEMENT_3D('',#1725,#1442,#1443);
#1325=AXIS2_PLACEMENT_3D('',#1727,#1444,#1445);
#1326=AXIS2_PLACEMENT_3D('',#1729,#1446,#1447);
#1327=AXIS2_PLACEMENT_3D('',#1732,#1449,#1450);
#1328=AXIS2_PLACEMENT_3D('',#1733,#1451,#1452);
#1329=AXIS2_PLACEMENT_3D('',#1736,#1453,#1454);
#1330=AXIS2_PLACEMENT_3D('',#1737,#1455,#1456);
#1331=AXIS2_PLACEMENT_3D('',#1740,#1458,#1459);
#1332=AXIS2_PLACEMENT_3D('',#1741,#1460,#1461);
#1333=AXIS2_PLACEMENT_3D('',#1743,#1462,#1463);
#1334=AXIS2_PLACEMENT_3D('',#1745,#1464,#1465);
#1335=AXIS2_PLACEMENT_3D('',#1748,#1467,#1468);
#1336=AXIS2_PLACEMENT_3D('',#1749,#1469,#1470);
#1337=AXIS2_PLACEMENT_3D('',#1752,#1471,#1472);
#1338=AXIS2_PLACEMENT_3D('',#1753,#1473,#1474);
#1339=AXIS2_PLACEMENT_3D('',#1756,#1476,#1477);
#1340=AXIS2_PLACEMENT_3D('',#1757,#1478,#1479);
#1341=AXIS2_PLACEMENT_3D('',#1758,#1480,#1481);
#1342=AXIS2_PLACEMENT_3D('',#1759,#1482,#1483);
#1343=AXIS2_PLACEMENT_3D('',#1760,#1484,#1485);
#1344=AXIS2_PLACEMENT_3D('',#1761,#1486,#1487);
#1345=AXIS2_PLACEMENT_3D('',#1762,#1488,#1489);
#1346=AXIS2_PLACEMENT_3D('',#1763,#1490,#1491);
#1347=AXIS2_PLACEMENT_3D('',#1764,#1492,#1493);
#1348=AXIS2_PLACEMENT_3D('',#1765,#1494,#1495);
#1349=AXIS2_PLACEMENT_3D('',#1766,#1496,#1497);
#1350=AXIS2_PLACEMENT_3D('',#1767,#1498,#1499);
#1351=AXIS2_PLACEMENT_3D('',#1768,#1500,#1501);
#1352=AXIS2_PLACEMENT_3D('',#1770,#1502,#1503);
#1353=AXIS2_PLACEMENT_3D('',#1772,#1504,#1505);
#1354=AXIS2_PLACEMENT_3D('',#1773,#1506,#1507);
#1355=AXIS2_PLACEMENT_3D('',#1774,#1508,#1509);
#1356=AXIS2_PLACEMENT_3D('',#1775,#1510,#1511);
#1357=AXIS2_PLACEMENT_3D('',#1776,#1512,#1513);
#1358=AXIS2_PLACEMENT_3D('',#1777,#1514,#1515);
#1359=AXIS2_PLACEMENT_3D('',#1778,#1516,#1517);
#1360=AXIS2_PLACEMENT_3D('',#1780,#1518,#1519);
#1361=AXIS2_PLACEMENT_3D('',#1784,#1521,#1522);
#1362=AXIS2_PLACEMENT_3D('',#1789,#1525,#1526);
#1363=AXIS2_PLACEMENT_3D('',#1792,#1528,#1529);
#1364=AXIS2_PLACEMENT_3D('',#1795,#1531,#1532);
#1365=AXIS2_PLACEMENT_3D('',#1796,#1533,#1534);
#1366=AXIS2_PLACEMENT_3D('',#1835,#1554,#1555);
#1367=AXIS2_PLACEMENT_3D('',#1838,#1557,#1558);
#1368=AXIS2_PLACEMENT_3D('',#1840,#1560,#1561);
#1369=AXIS2_PLACEMENT_3D('',#1846,#1565,#1566);
#1370=AXIS2_PLACEMENT_3D('',#1849,#1569,#1570);
#1371=AXIS2_PLACEMENT_3D('',#1850,#1571,#1572);
#1372=AXIS2_PLACEMENT_3D('',#1851,#1573,#1574);
#1373=AXIS2_PLACEMENT_3D('',#1857,#1578,#1579);
#1374=AXIS2_PLACEMENT_3D('',#1861,#1582,#1583);
#1375=AXIS2_PLACEMENT_3D('',#1865,#1586,#1587);
#1376=AXIS2_PLACEMENT_3D('',#1867,#1589,#1590);
#1377=AXIS2_PLACEMENT_3D('',#1868,#1591,#1592);
#1378=AXIS2_PLACEMENT_3D('',#1874,#1596,#1597);
#1379=AXIS2_PLACEMENT_3D('',#1878,#1600,#1601);
#1380=AXIS2_PLACEMENT_3D('',#1882,#1604,#1605);
#1381=AXIS2_PLACEMENT_3D('',#1884,#1607,#1608);
#1382=AXIS2_PLACEMENT_3D('',#1885,#1609,#1610);
#1383=AXIS2_PLACEMENT_3D('',#1891,#1614,#1615);
#1384=AXIS2_PLACEMENT_3D('',#1895,#1618,#1619);
#1385=AXIS2_PLACEMENT_3D('',#1899,#1622,#1623);
#1386=AXIS2_PLACEMENT_3D('',#1901,#1625,#1626);
#1387=AXIS2_PLACEMENT_3D('',#1902,#1627,#1628);
#1388=AXIS2_PLACEMENT_3D('',#1908,#1632,#1633);
#1389=AXIS2_PLACEMENT_3D('',#1912,#1636,#1637);
#1390=AXIS2_PLACEMENT_3D('',#1916,#1640,#1641);
#1391=AXIS2_PLACEMENT_3D('',#1918,#1643,#1644);
#1392=AXIS2_PLACEMENT_3D('',#1919,#1645,#1646);
#1393=AXIS2_PLACEMENT_3D('',#1920,#1647,#1648);
#1394=AXIS2_PLACEMENT_3D('',#1922,#1649,#1650);
#1395=AXIS2_PLACEMENT_3D('',#1923,#1651,#1652);
#1396=AXIS2_PLACEMENT_3D('',#1925,#1653,#1654);
#1397=AXIS2_PLACEMENT_3D('',#1927,#1655,#1656);
#1398=AXIS2_PLACEMENT_3D('',#1928,#1657,#1658);
#1399=AXIS2_PLACEMENT_3D('',#1930,#1659,#1660);
#1400=AXIS2_PLACEMENT_3D('',#1931,#1661,#1662);
#1401=AXIS2_PLACEMENT_3D('',#1933,#1663,#1664);
#1402=AXIS2_PLACEMENT_3D('',#1934,#1665,#1666);
#1403=AXIS2_PLACEMENT_3D('',#1936,#1667,#1668);
#1404=AXIS2_PLACEMENT_3D('',#1937,#1669,#1670);
#1405=AXIS2_PLACEMENT_3D('',#1939,#1671,#1672);
#1406=AXIS2_PLACEMENT_3D('',#1940,#1673,#1674);
#1407=AXIS2_PLACEMENT_3D('',#1942,#1675,#1676);
#1408=AXIS2_PLACEMENT_3D('',#1943,#1677,#1678);
#1409=AXIS2_PLACEMENT_3D('',#1944,#1679,#1680);
#1410=DIRECTION('',(0.,0.,1.));
#1411=DIRECTION('',(1.,0.,0.));
#1412=DIRECTION('',(-2.59280908551148E-17,4.30941956382966E-16,1.));
#1413=DIRECTION('',(1.,1.59594559789866E-15,-3.82504327457343E-16));
#1414=DIRECTION('',(-2.59280908551148E-17,4.30941956382966E-16,1.));
#1415=DIRECTION('',(5.68989300120393E-16,1.,7.08001584064069E-16));
#1416=DIRECTION('',(-2.59280908551148E-17,4.30941956382966E-16,1.));
#1417=DIRECTION('',(5.68989300120393E-16,1.,7.08001584064069E-16));
#1418=DIRECTION('',(-4.49271181267551E-16,1.47802512777564E-15,1.));
#1419=DIRECTION('',(1.,-9.71445146547013E-16,-8.13538687017676E-16));
#1420=DIRECTION('',(-4.49271181267551E-16,1.47802512777564E-15,1.));
#1421=DIRECTION('',(1.,-9.71445146547013E-16,-8.13538687017676E-16));
#1422=DIRECTION('',(-4.49271181267551E-16,1.47802512777564E-15,1.));
#1423=DIRECTION('',(1.,-9.71445146547013E-16,-8.13538687017676E-16));
#1424=DIRECTION('',(-4.49271181267551E-16,1.47802512777564E-15,1.));
#1425=DIRECTION('',(1.,-9.71445146547013E-16,-8.13538687017676E-16));
#1426=DIRECTION('',(-4.49271181267551E-16,1.47802512777564E-15,1.));
#1427=DIRECTION('',(1.,-9.71445146547013E-16,-8.13538687017676E-16));
#1428=DIRECTION('',(-1.,9.71445146547013E-16,6.91074007102941E-16));
#1429=DIRECTION('',(-5.71735861182286E-16,1.47802512777564E-15,1.));
#1430=DIRECTION('',(-1.,9.71445146547013E-16,6.91074007102941E-16));
#1431=DIRECTION('',(-5.71735861182286E-16,1.47802512777564E-15,1.));
#1432=DIRECTION('',(1.,-9.71445146547013E-16,-6.91074007102941E-16));
#1433=DIRECTION('',(5.71735861182286E-16,-1.47802512777564E-15,-1.));
#1434=DIRECTION('',(-1.,9.71445146547013E-16,6.91074007102941E-16));
#1435=DIRECTION('',(-5.71735861182286E-16,1.47802512777564E-15,1.));
#1436=DIRECTION('',(-1.,9.71445146547013E-16,6.91074007102941E-16));
#1437=DIRECTION('',(-5.71735861182286E-16,1.47802512777564E-15,1.));
#1438=DIRECTION('',(1.,-9.71445146547013E-16,-6.91074007102941E-16));
#1439=DIRECTION('',(5.71735861182286E-16,-1.47802512777564E-15,-1.));
#1440=DIRECTION('',(-0.0333148302326391,1.50956821648011E-15,0.999444906979154));
#1441=DIRECTION('',(0.999444906979154,-9.21665747914611E-16,0.0333148302326378));
#1442=DIRECTION('',(-0.0333148302326391,1.50956821648011E-15,0.999444906979154));
#1443=DIRECTION('',(0.999444906979154,-9.21665747914611E-16,0.0333148302326378));
#1444=DIRECTION('',(-0.0333148302326391,1.50956821648011E-15,0.999444906979154));
#1445=DIRECTION('',(0.999444906979154,-9.21665747914611E-16,0.0333148302326378));
#1446=DIRECTION('',(-0.0333148302326391,1.50956821648011E-15,0.999444906979154));
#1447=DIRECTION('',(0.999444906979154,1.52170419361278E-16,0.0333148302326391));
#1448=DIRECTION('',(-1.80411241501588E-15,1.,1.56430689355513E-15));
#1449=DIRECTION('',(-0.0333148302326379,-1.44484115620505E-15,-0.999444906979154));
#1450=DIRECTION('',(-0.999444906979154,1.02014606033745E-15,0.0333148302326392));
#1451=DIRECTION('',(-0.0333148302326379,-1.44484115620505E-15,-0.999444906979154));
#1452=DIRECTION('',(0.999444906979154,5.36901069384389E-17,-0.0333148302326379));
#1453=DIRECTION('',(-0.0333148302326379,-1.44484115620505E-15,-0.999444906979154));
#1454=DIRECTION('',(0.999444906979154,-1.02014606033745E-15,-0.0333148302326392));
#1455=DIRECTION('',(-0.0333148302326379,-1.44484115620505E-15,-0.999444906979154));
#1456=DIRECTION('',(0.999444906979154,-1.02014606033745E-15,-0.0333148302326392));
#1457=DIRECTION('',(-1.80411241501588E-15,1.,1.56430689355513E-15));
#1458=DIRECTION('',(-0.0333148302326379,-1.44484115620505E-15,-0.999444906979154));
#1459=DIRECTION('',(-0.999444906979154,1.02014606033745E-15,0.0333148302326392));
#1460=DIRECTION('',(-0.0333148302326379,-1.44484115620505E-15,-0.999444906979154));
#1461=DIRECTION('',(0.999444906979154,-1.02014606033745E-15,-0.0333148302326392));
#1462=DIRECTION('',(-0.0333148302326379,-1.44484115620505E-15,-0.999444906979154));
#1463=DIRECTION('',(0.999444906979154,-1.02014606033745E-15,-0.0333148302326392));
#1464=DIRECTION('',(-0.0333148302326379,-1.44484115620505E-15,-0.999444906979154));
#1465=DIRECTION('',(0.999444906979154,5.36901069384389E-17,-0.0333148302326379));
#1466=DIRECTION('',(-1.80411241501588E-15,1.,1.56430689355513E-15));
#1467=DIRECTION('',(-0.0333148302326391,1.50956821648011E-15,0.999444906979154));
#1468=DIRECTION('',(0.999444906979154,-9.21665747914611E-16,0.0333148302326378));
#1469=DIRECTION('',(-0.0333148302326391,1.50956821648011E-15,0.999444906979154));
#1470=DIRECTION('',(0.999444906979154,-9.21665747914611E-16,0.0333148302326378));
#1471=DIRECTION('',(-0.0333148302326391,1.50956821648011E-15,0.999444906979154));
#1472=DIRECTION('',(0.999444906979154,-9.21665747914611E-16,0.0333148302326378));
#1473=DIRECTION('',(-0.0333148302326391,1.50956821648011E-15,0.999444906979154));
#1474=DIRECTION('',(0.999444906979154,-9.21665747914611E-16,0.0333148302326378));
#1475=DIRECTION('',(-1.80411241501588E-15,1.,1.56430689355513E-15));
#1476=DIRECTION('',(-1.,9.71445146547013E-16,6.91074007102941E-16));
#1477=DIRECTION('',(-5.71735861182286E-16,1.47802512777564E-15,1.));
#1478=DIRECTION('',(-1.,9.71445146547013E-16,6.91074007102941E-16));
#1479=DIRECTION('',(-1.80411241501588E-15,1.,1.56430689355513E-15));
#1480=DIRECTION('',(-1.,9.71445146547013E-16,6.91074007102941E-16));
#1481=DIRECTION('',(-9.71445146547013E-16,-1.,0.));
#1482=DIRECTION('',(-1.,9.71445146547013E-16,6.91074007102941E-16));
#1483=DIRECTION('',(-1.80411241501588E-15,1.,1.56430689355513E-15));
#1484=DIRECTION('',(-1.,9.71445146547013E-16,6.91074007102941E-16));
#1485=DIRECTION('',(-9.71445146547013E-16,-1.,0.));
#1486=DIRECTION('',(1.,-9.71445146547013E-16,-6.91074007102941E-16));
#1487=DIRECTION('',(5.71735861182286E-16,-1.47802512777564E-15,-1.));
#1488=DIRECTION('',(1.,-9.71445146547013E-16,-6.91074007102941E-16));
#1489=DIRECTION('',(5.71735861182286E-16,-1.47802512777564E-15,-1.));
#1490=DIRECTION('',(1.,-9.71445146547013E-16,-6.91074007102941E-16));
#1491=DIRECTION('',(5.71735861182286E-16,-1.47802512777564E-15,-1.));
#1492=DIRECTION('',(-1.,-1.01794941766888E-16,-8.5922309125043E-17));
#1493=DIRECTION('',(6.19850024239463E-16,1.,-8.24080821137925E-16));
#1494=DIRECTION('',(1.,-9.71445146547013E-16,-6.91074007102941E-16));
#1495=DIRECTION('',(5.71735861182286E-16,-1.47802512777564E-15,-1.));
#1496=DIRECTION('',(-1.,-1.01794941766888E-16,-8.5922309125043E-17));
#1497=DIRECTION('',(6.19850024239463E-16,1.,-8.24080821137925E-16));
#1498=DIRECTION('',(1.,1.01794941766888E-16,8.5922309125043E-17));
#1499=DIRECTION('',(-3.77210270144737E-15,-6.95375983181682E-16,-1.));
#1500=DIRECTION('',(-1.,-1.01794941766888E-16,-8.5922309125043E-17));
#1501=DIRECTION('',(6.19850024239463E-16,1.,-8.24080821137925E-16));
#1502=DIRECTION('',(-1.,-1.01794941766888E-16,-8.5922309125043E-17));
#1503=DIRECTION('',(3.77210270144737E-15,6.95375983181682E-16,1.));
#1504=DIRECTION('',(-1.,-1.01794941766888E-16,-8.5922309125043E-17));
#1505=DIRECTION('',(3.77210270144737E-15,6.95375983181682E-16,1.));
#1506=DIRECTION('',(-1.,-1.01794941766888E-16,-8.5922309125043E-17));
#1507=DIRECTION('',(6.19850024239463E-16,1.,-8.24080821137925E-16));
#1508=DIRECTION('',(-1.,-1.01794941766888E-16,-8.5922309125043E-17));
#1509=DIRECTION('',(6.19850024239463E-16,1.,-8.24080821137925E-16));
#1510=DIRECTION('',(1.,1.01794941766888E-16,8.5922309125043E-17));
#1511=DIRECTION('',(-3.77210270144737E-15,-6.95375983181682E-16,-1.));
#1512=DIRECTION('',(1.,1.01794941766888E-16,8.5922309125043E-17));
#1513=DIRECTION('',(-3.77210270144737E-15,-6.95375983181682E-16,-1.));
#1514=DIRECTION('',(-1.,0.,-1.14126544472158E-16));
#1515=DIRECTION('',(-1.14126544472158E-16,0.,1.));
#1516=DIRECTION('',(-1.,0.,-1.14126544472158E-16));
#1517=DIRECTION('',(0.,1.,0.));
#1518=DIRECTION('',(1.,0.,1.14126544472158E-16));
#1519=DIRECTION('',(1.14126544472158E-16,0.,-1.));
#1520=DIRECTION('',(1.14126544472158E-16,0.,-1.));
#1521=DIRECTION('',(-1.,0.,-1.14126544472158E-16));
#1522=DIRECTION('',(0.,1.,0.));
#1523=DIRECTION('',(1.14126544472158E-16,0.,-1.));
#1524=DIRECTION('',(0.,1.,0.));
#1525=DIRECTION('',(1.,0.,1.14126544472158E-16));
#1526=DIRECTION('',(1.14126544472158E-16,0.,-1.));
#1527=DIRECTION('',(1.14126544472158E-16,0.,-1.));
#1528=DIRECTION('',(-1.,0.,-1.14126544472158E-16));
#1529=DIRECTION('',(0.,1.,0.));
#1530=DIRECTION('',(0.,1.,0.));
#1531=DIRECTION('',(1.23908819712629E-16,0.,-1.));
#1532=DIRECTION('',(-1.,0.,-1.23908819712629E-16));
#1533=DIRECTION('',(-1.23908819712629E-16,0.,1.));
#1534=DIRECTION('',(1.,0.,1.23908819712629E-16));
#1535=DIRECTION('',(-1.,0.,-1.23908819712629E-16));
#1536=DIRECTION('',(-1.,0.,-1.23908819712629E-16));
#1537=DIRECTION('',(0.,1.,0.));
#1538=DIRECTION('',(1.,0.,1.44560289664734E-16));
#1539=DIRECTION('',(0.,1.,0.));
#1540=DIRECTION('',(-1.,0.,-1.44560289664734E-16));
#1541=DIRECTION('',(0.,-1.,0.));
#1542=DIRECTION('',(1.,0.,1.44560289664734E-16));
#1543=DIRECTION('',(0.,1.,0.));
#1544=DIRECTION('',(-1.,0.,-1.44560289664734E-16));
#1545=DIRECTION('',(0.,-1.,0.));
#1546=DIRECTION('',(1.,0.,1.44560289664734E-16));
#1547=DIRECTION('',(0.,1.,0.));
#1548=DIRECTION('',(-1.,0.,-1.44560289664734E-16));
#1549=DIRECTION('',(0.,-1.,0.));
#1550=DIRECTION('',(1.,-2.16840434497101E-16,1.44560289664734E-16));
#1551=DIRECTION('',(2.16840434497101E-16,1.,3.13465160219277E-32));
#1552=DIRECTION('',(-1.,0.,-1.44560289664734E-16));
#1553=DIRECTION('',(0.,-1.,0.));
#1554=DIRECTION('',(1.,0.,1.14126544472158E-16));
#1555=DIRECTION('',(1.14126544472158E-16,0.,-1.));
#1556=DIRECTION('',(0.,1.,0.));
#1557=DIRECTION('',(-1.,0.,-1.14126544472158E-16));
#1558=DIRECTION('',(0.,1.,0.));
#1559=DIRECTION('',(1.14126544472158E-16,0.,-1.));
#1560=DIRECTION('',(-1.,0.,-1.14126544472158E-16));
#1561=DIRECTION('',(-1.14126544472158E-16,0.,1.));
#1562=DIRECTION('',(-1.14126544472158E-16,0.,1.));
#1563=DIRECTION('',(-1.14126544472158E-16,0.,1.));
#1564=DIRECTION('',(0.,1.,0.));
#1565=DIRECTION('',(-1.23908819712629E-16,0.,1.));
#1566=DIRECTION('',(1.,0.,1.23908819712629E-16));
#1567=DIRECTION('',(1.,0.,1.23908819712629E-16));
#1568=DIRECTION('',(1.,0.,1.23908819712629E-16));
#1569=DIRECTION('',(0.,1.,0.));
#1570=DIRECTION('',(0.,0.,1.));
#1571=DIRECTION('',(0.,1.,0.));
#1572=DIRECTION('',(0.,0.,1.));
#1573=DIRECTION('',(1.,0.,1.44560289664734E-16));
#1574=DIRECTION('',(1.44560289664734E-16,0.,-1.));
#1575=DIRECTION('',(-1.44560289664734E-16,0.,1.));
#1576=DIRECTION('',(0.,1.,0.));
#1577=DIRECTION('',(-1.44560289664734E-16,0.,1.));
#1578=DIRECTION('',(0.,-1.,0.));
#1579=DIRECTION('',(0.,0.,-1.));
#1580=DIRECTION('',(-1.44560289664734E-16,0.,1.));
#1581=DIRECTION('',(1.,0.,1.44560289664734E-16));
#1582=DIRECTION('',(-1.,0.,-1.44560289664734E-16));
#1583=DIRECTION('',(-1.44560289664734E-16,0.,1.));
#1584=DIRECTION('',(-1.44560289664734E-16,0.,1.));
#1585=DIRECTION('',(0.,-1.,0.));
#1586=DIRECTION('',(0.,1.,0.));
#1587=DIRECTION('',(0.,0.,1.));
#1588=DIRECTION('',(-1.,0.,-1.44560289664734E-16));
#1589=DIRECTION('',(1.44560289664734E-16,0.,-1.));
#1590=DIRECTION('',(-1.,0.,-1.44560289664734E-16));
#1591=DIRECTION('',(1.,0.,1.44560289664734E-16));
#1592=DIRECTION('',(1.44560289664734E-16,0.,-1.));
#1593=DIRECTION('',(-1.44560289664734E-16,0.,1.));
#1594=DIRECTION('',(0.,1.,0.));
#1595=DIRECTION('',(-1.44560289664734E-16,0.,1.));
#1596=DIRECTION('',(0.,-1.,0.));
#1597=DIRECTION('',(0.,0.,-1.));
#1598=DIRECTION('',(-1.44560289664734E-16,0.,1.));
#1599=DIRECTION('',(1.,0.,1.44560289664734E-16));
#1600=DIRECTION('',(-1.,0.,-1.44560289664734E-16));
#1601=DIRECTION('',(-1.44560289664734E-16,0.,1.));
#1602=DIRECTION('',(-1.44560289664734E-16,0.,1.));
#1603=DIRECTION('',(0.,-1.,0.));
#1604=DIRECTION('',(0.,1.,0.));
#1605=DIRECTION('',(0.,0.,1.));
#1606=DIRECTION('',(-1.,0.,-1.44560289664734E-16));
#1607=DIRECTION('',(1.44560289664734E-16,0.,-1.));
#1608=DIRECTION('',(-1.,0.,-1.44560289664734E-16));
#1609=DIRECTION('',(1.,0.,1.44560289664734E-16));
#1610=DIRECTION('',(1.44560289664734E-16,0.,-1.));
#1611=DIRECTION('',(-1.44560289664734E-16,0.,1.));
#1612=DIRECTION('',(0.,1.,0.));
#1613=DIRECTION('',(-1.44560289664734E-16,0.,1.));
#1614=DIRECTION('',(0.,-1.,0.));
#1615=DIRECTION('',(0.,0.,-1.));
#1616=DIRECTION('',(-1.44560289664734E-16,0.,1.));
#1617=DIRECTION('',(1.,0.,1.44560289664734E-16));
#1618=DIRECTION('',(-1.,0.,-1.44560289664734E-16));
#1619=DIRECTION('',(-1.44560289664734E-16,0.,1.));
#1620=DIRECTION('',(-1.44560289664734E-16,0.,1.));
#1621=DIRECTION('',(0.,-1.,0.));
#1622=DIRECTION('',(0.,1.,0.));
#1623=DIRECTION('',(0.,0.,1.));
#1624=DIRECTION('',(-1.,0.,-1.44560289664734E-16));
#1625=DIRECTION('',(1.44560289664734E-16,0.,-1.));
#1626=DIRECTION('',(-1.,0.,-1.44560289664734E-16));
#1627=DIRECTION('',(1.,-2.16840434497101E-16,1.44560289664734E-16));
#1628=DIRECTION('',(2.16840434497101E-16,1.,0.));
#1629=DIRECTION('',(-1.44560289664734E-16,0.,1.));
#1630=DIRECTION('',(2.16840434497101E-16,1.,3.13465160219277E-32));
#1631=DIRECTION('',(-1.44560289664734E-16,0.,1.));
#1632=DIRECTION('',(-2.16840434497101E-16,-1.,-3.13465160219277E-32));
#1633=DIRECTION('',(1.,-2.16840434497101E-16,0.));
#1634=DIRECTION('',(-1.44560289664734E-16,0.,1.));
#1635=DIRECTION('',(1.,-2.16840434497101E-16,1.44560289664734E-16));
#1636=DIRECTION('',(-1.,0.,-1.44560289664734E-16));
#1637=DIRECTION('',(-1.44560289664734E-16,0.,1.));
#1638=DIRECTION('',(-1.44560289664734E-16,0.,1.));
#1639=DIRECTION('',(0.,-1.,0.));
#1640=DIRECTION('',(0.,1.,0.));
#1641=DIRECTION('',(0.,0.,1.));
#1642=DIRECTION('',(-1.,0.,-1.44560289664734E-16));
#1643=DIRECTION('',(1.44560289664734E-16,0.,-1.));
#1644=DIRECTION('',(-1.,0.,-1.44560289664734E-16));
#1645=DIRECTION('',(-1.,0.,-1.14126544472158E-16));
#1646=DIRECTION('',(-1.14126544472158E-16,0.,1.));
#1647=DIRECTION('',(-1.,0.,0.));
#1648=DIRECTION('',(0.,0.,1.));
#1649=DIRECTION('',(-1.,0.,-1.14126544472158E-16));
#1650=DIRECTION('',(-1.14126544472158E-16,0.,1.));
#1651=DIRECTION('',(-1.,0.,-1.14126544472158E-16));
#1652=DIRECTION('',(-1.14126544472158E-16,0.,1.));
#1653=DIRECTION('',(1.,0.,1.35525271560688E-16));
#1654=DIRECTION('',(1.35525271560688E-16,0.,-1.));
#1655=DIRECTION('',(1.,0.,1.14126544472158E-16));
#1656=DIRECTION('',(1.14126544472158E-16,0.,-1.));
#1657=DIRECTION('',(1.,0.,1.35525271560688E-16));
#1658=DIRECTION('',(1.35525271560688E-16,0.,-1.));
#1659=DIRECTION('',(1.,0.,1.35525271560688E-16));
#1660=DIRECTION('',(1.35525271560688E-16,0.,-1.));
#1661=DIRECTION('',(1.,0.,1.35525271560688E-16));
#1662=DIRECTION('',(1.35525271560688E-16,0.,-1.));
#1663=DIRECTION('',(1.,0.,1.35525271560688E-16));
#1664=DIRECTION('',(1.35525271560688E-16,0.,-1.));
#1665=DIRECTION('',(1.,0.,1.35525271560688E-16));
#1666=DIRECTION('',(1.35525271560688E-16,0.,-1.));
#1667=DIRECTION('',(-1.,0.,-1.35525271560688E-16));
#1668=DIRECTION('',(-1.35525271560688E-16,0.,1.));
#1669=DIRECTION('',(1.,0.,1.35525271560688E-16));
#1670=DIRECTION('',(1.35525271560688E-16,0.,-1.));
#1671=DIRECTION('',(1.,0.,1.35525271560688E-16));
#1672=DIRECTION('',(1.35525271560688E-16,0.,-1.));
#1673=DIRECTION('',(1.,0.,1.35525271560688E-16));
#1674=DIRECTION('',(1.35525271560688E-16,0.,-1.));
#1675=DIRECTION('',(1.,0.,1.35525271560688E-16));
#1676=DIRECTION('',(1.35525271560688E-16,0.,-1.));
#1677=DIRECTION('',(-1.,0.,0.));
#1678=DIRECTION('',(0.,0.,1.));
#1679=DIRECTION('',(1.23908819712629E-16,0.,-1.));
#1680=DIRECTION('',(-1.,0.,-1.23908819712629E-16));
#1681=CARTESIAN_POINT('',(0.,0.,0.));
#1682=CARTESIAN_POINT('',(-2.18372036729149E-16,-1.81295528376296E-16,-1.89));
#1683=CARTESIAN_POINT('',(-2.18372036729149E-16,-1.81295528376296E-16,-1.89));
#1684=CARTESIAN_POINT('',(-1.92257816870109E-17,0.35,-1.89));
#1685=CARTESIAN_POINT('',(-2.18372036729149E-16,-1.81295528376296E-16,-1.89));
#1686=CARTESIAN_POINT('',(4.21740925906294E-16,1.125,-1.89));
#1687=CARTESIAN_POINT('',(1.89953258237063E-15,-6.3802607662728E-15,-4.4));
#1688=CARTESIAN_POINT('',(1.89953258237063E-15,-6.3802607662728E-15,-4.4));
#1689=CARTESIAN_POINT('',(0.250000000000002,-6.62312205290955E-15,-4.4));
#1690=CARTESIAN_POINT('',(1.89953258237063E-15,-6.3802607662728E-15,-4.4));
#1691=CARTESIAN_POINT('',(1.85460546424388E-15,-6.23245825349524E-15,-4.3));
#1692=CARTESIAN_POINT('',(0.350000000000002,-6.57246405478669E-15,-4.3));
#1693=CARTESIAN_POINT('',(1.89953258237063E-15,-6.3802607662728E-15,-4.4));
#1694=CARTESIAN_POINT('',(3.2,-2.76387090384407E-15,0.149999999999998));
#1695=CARTESIAN_POINT('',(3.25,-0.295517436973789,0.201666666666665));
#1696=CARTESIAN_POINT('',(3.23334528955893,-0.312327714129566,0.202221823681367));
#1697=CARTESIAN_POINT('',(3.21667689462328,-0.329124399020256,0.202777436845889));
#1698=CARTESIAN_POINT('',(3.2,-0.345912641508745,0.203333333333331));
#1699=CARTESIAN_POINT('',(3.25,-0.295517436973789,0.201666666666665));
#1700=CARTESIAN_POINT('',(3.2,-0.345912641508745,0.203333333333331));
#1701=CARTESIAN_POINT('',(3.25,-2.81244316117142E-15,0.149999999999998));
#1702=CARTESIAN_POINT('',(3.25,0.295517436973783,0.201666666666666));
#1703=CARTESIAN_POINT('',(3.2,0.345912641508739,0.203333333333332));
#1704=CARTESIAN_POINT('',(3.21667689462327,0.329124399020252,0.20277743684589));
#1705=CARTESIAN_POINT('',(3.23334528955811,0.312327714130386,0.202221823681395));
#1706=CARTESIAN_POINT('',(3.24999999999918,0.29551743697461,0.201666666666693));
#1707=CARTESIAN_POINT('',(3.19999999999999,0.345912641508739,0.203333333333333));
#1708=CARTESIAN_POINT('',(3.2,-2.76387090384407E-15,0.149999999999998));
#1709=CARTESIAN_POINT('',(3.2,-2.76387090384407E-15,0.149999999999998));
#1710=CARTESIAN_POINT('',(3.25,0.295517436973783,0.0983333333333323));
#1711=CARTESIAN_POINT('',(3.23334528955893,0.31232771412956,0.0977781763186301));
#1712=CARTESIAN_POINT('',(3.21667689462327,0.329124399020251,0.0972225631541082));
#1713=CARTESIAN_POINT('',(3.2,0.345912641508739,0.0966666666666658));
#1714=CARTESIAN_POINT('',(3.25,0.295517436973783,0.0983333333333323));
#1715=CARTESIAN_POINT('',(3.2,0.345912641508739,0.0966666666666658));
#1716=CARTESIAN_POINT('',(3.25,-2.81244316117142E-15,0.149999999999998));
#1717=CARTESIAN_POINT('',(3.25,-0.295517436973789,0.0983333333333314));
#1718=CARTESIAN_POINT('',(3.2,-0.345912641508745,0.0966666666666647));
#1719=CARTESIAN_POINT('',(3.21667689462327,-0.329124399020256,0.0972225631541072));
#1720=CARTESIAN_POINT('',(3.23334528955893,-0.312327714129564,0.0977781763186292));
#1721=CARTESIAN_POINT('',(3.25,-0.295517436973787,0.0983333333333315));
#1722=CARTESIAN_POINT('',(3.2,-0.345912641508745,0.0966666666666647));
#1723=CARTESIAN_POINT('',(3.2,-2.76387090384407E-15,0.149999999999998));
#1724=CARTESIAN_POINT('',(3.3,-0.500000000000003,0.0999999999999977));
#1725=CARTESIAN_POINT('',(4.79999999999998,-4.31818313831928E-15,0.149999999999997));
#1726=CARTESIAN_POINT('',(1.8,0.282842712474618,0.0499999999999999));
#1727=CARTESIAN_POINT('',(4.8,-4.31818313831929E-15,0.149999999999997));
#1728=CARTESIAN_POINT('',(2.04999990532385,0.337782802468754,0.0583333301774575));
#1729=CARTESIAN_POINT('',(4.80000000000008,3.93539254508351E-16,0.15));
#1730=CARTESIAN_POINT('',(1.8,0.335410196624967,0.0499999999999955));
#1731=CARTESIAN_POINT('',(1.8,-0.500000000000002,0.0499999999999987));
#1732=CARTESIAN_POINT('',(3.3,-0.500000000000003,0.199999999999998));
#1733=CARTESIAN_POINT('',(4.79999999999992,3.93539254508335E-16,0.15));
#1734=CARTESIAN_POINT('',(1.8,0.335410196624968,0.25));
#1735=CARTESIAN_POINT('',(2.04999990532385,0.337782802468756,0.241666669822534));
#1736=CARTESIAN_POINT('',(4.8,-4.31818313831929E-15,0.149999999999997));
#1737=CARTESIAN_POINT('',(4.80000000000001,-4.3181831383193E-15,0.149999999999997));
#1738=CARTESIAN_POINT('',(1.8,0.282842712474618,0.25));
#1739=CARTESIAN_POINT('',(1.8,-0.500000000000001,0.249999999999999));
#1740=CARTESIAN_POINT('',(3.3,-0.500000000000003,0.199999999999998));
#1741=CARTESIAN_POINT('',(4.80000000000001,-4.3181831383193E-15,0.149999999999997));
#1742=CARTESIAN_POINT('',(1.8,-0.28284271247462,0.249999999999999));
#1743=CARTESIAN_POINT('',(4.8,-4.31818313831929E-15,0.149999999999997));
#1744=CARTESIAN_POINT('',(2.04999990532385,-0.337782802468755,0.241666669822535));
#1745=CARTESIAN_POINT('',(4.79999999999992,3.93539254508335E-16,0.15));
#1746=CARTESIAN_POINT('',(1.8,-0.335410196624969,0.249999999999997));
#1747=CARTESIAN_POINT('',(1.8,-0.500000000000001,0.249999999999999));
#1748=CARTESIAN_POINT('',(3.3,-0.500000000000003,0.0999999999999977));
#1749=CARTESIAN_POINT('',(4.8,-4.31818313831929E-15,0.149999999999997));
#1750=CARTESIAN_POINT('',(1.8,-0.335410196624968,0.0499999999999996));
#1751=CARTESIAN_POINT('',(2.04999990532385,-0.337782802468754,0.0583333301774585));
#1752=CARTESIAN_POINT('',(4.8,-4.31818313831929E-15,0.149999999999997));
#1753=CARTESIAN_POINT('',(4.79999999999998,-4.31818313831928E-15,0.149999999999997));
#1754=CARTESIAN_POINT('',(1.8,-0.282842712474621,0.0499999999999991));
#1755=CARTESIAN_POINT('',(1.8,-0.500000000000002,0.0499999999999987));
#1756=CARTESIAN_POINT('',(1.8,-1.40384769867825E-15,0.149999999999999));
#1757=CARTESIAN_POINT('',(1.8,-1.40384769867825E-15,0.149999999999999));
#1758=CARTESIAN_POINT('',(1.8,8.81544292076779E-17,0.15));
#1759=CARTESIAN_POINT('',(1.8,-1.40384769867825E-15,0.149999999999999));
#1760=CARTESIAN_POINT('',(1.8,8.81544292076779E-17,0.15));
#1761=CARTESIAN_POINT('',(1.8,-1.40384769867825E-15,0.149999999999999));
#1762=CARTESIAN_POINT('',(1.8,-1.40384769867825E-15,0.149999999999999));
#1763=CARTESIAN_POINT('',(0.75,-3.83830294803889E-16,0.15));
#1764=CARTESIAN_POINT('',(2.04999990532385,1.13603155011847E-16,0.15));
#1765=CARTESIAN_POINT('',(0.75,-3.83830294803889E-16,0.15));
#1766=CARTESIAN_POINT('',(2.04999990532385,1.13603155011847E-16,0.15));
#1767=CARTESIAN_POINT('',(0.809999905323855,-1.26225727790943E-17,0.15));
#1768=CARTESIAN_POINT('',(2.04999990532385,1.13603155011847E-16,0.15));
#1769=CARTESIAN_POINT('',(2.04999990532386,1.125,0.149999999999999));
#1770=CARTESIAN_POINT('',(1.24999990532385,3.21672015983366E-17,0.15));
#1771=CARTESIAN_POINT('',(1.24999990532386,8.14465182677729E-16,1.275));
#1772=CARTESIAN_POINT('',(2.04999990532385,1.13603155011847E-16,0.15));
#1773=CARTESIAN_POINT('',(2.04999990532385,1.13603155011847E-16,0.15));
#1774=CARTESIAN_POINT('',(2.04999990532385,1.13603155011847E-16,0.15));
#1775=CARTESIAN_POINT('',(0.809999905323855,-1.26225727790943E-17,0.15));
#1776=CARTESIAN_POINT('',(0.809999905323855,-1.26225727790943E-17,0.15));
#1777=CARTESIAN_POINT('',(1.25,0.,0.15));
#1778=CARTESIAN_POINT('',(1.25,0.,0.15));
#1779=CARTESIAN_POINT('',(1.25,1.21,0.15));
#1780=CARTESIAN_POINT('',(1.75,-1.75,1.9));
#1781=CARTESIAN_POINT('',(1.75,1.75,1.9));
#1782=CARTESIAN_POINT('',(1.75,1.75,0.15));
#1783=CARTESIAN_POINT('',(1.75,1.75,-1.9));
#1784=CARTESIAN_POINT('',(1.75,0.,0.15));
#1785=CARTESIAN_POINT('',(1.75,-1.75,0.15));
#1786=CARTESIAN_POINT('',(1.75,-1.75,1.9));
#1787=CARTESIAN_POINT('',(1.75,-1.75,-1.9));
#1788=CARTESIAN_POINT('',(1.75,-1.75,-1.9));
#1789=CARTESIAN_POINT('',(1.75,-1.75,1.9));
#1790=CARTESIAN_POINT('',(1.75,-1.75,1.9));
#1791=CARTESIAN_POINT('',(1.75,-1.75,1.9));
#1792=CARTESIAN_POINT('',(1.75,0.,0.15));
#1793=CARTESIAN_POINT('',(1.75,0.,1.9));
#1794=CARTESIAN_POINT('',(1.75,-1.75,1.9));
#1795=CARTESIAN_POINT('',(1.75,-1.75,-1.9));
#1796=CARTESIAN_POINT('',(3.09772049281573E-17,0.,-1.9));
#1797=CARTESIAN_POINT('',(1.125,0.,-1.9));
#1798=CARTESIAN_POINT('',(1.75,1.75,-1.9));
#1799=CARTESIAN_POINT('',(-1.75,1.75,-1.9));
#1800=CARTESIAN_POINT('',(1.75,-1.75,-1.9));
#1801=CARTESIAN_POINT('',(-1.75,-1.75,-1.9));
#1802=CARTESIAN_POINT('',(-1.75,-1.75,-1.9));
#1803=CARTESIAN_POINT('',(-1.52,-1.02,-1.9));
#1804=CARTESIAN_POINT('',(-1.52,-1.02,-1.9));
#1805=CARTESIAN_POINT('',(-1.02,-1.02,-1.9));
#1806=CARTESIAN_POINT('',(-1.52,-1.52,-1.9));
#1807=CARTESIAN_POINT('',(-1.52,-1.52,-1.9));
#1808=CARTESIAN_POINT('',(-1.02,-1.52,-1.9));
#1809=CARTESIAN_POINT('',(-1.02,-1.52,-1.9));
#1810=CARTESIAN_POINT('',(-1.02,-1.02,-1.9));
#1811=CARTESIAN_POINT('',(1.02,-1.02,-1.9));
#1812=CARTESIAN_POINT('',(1.02,-1.02,-1.9));
#1813=CARTESIAN_POINT('',(1.52,-1.02,-1.9));
#1814=CARTESIAN_POINT('',(1.02,-1.52,-1.9));
#1815=CARTESIAN_POINT('',(1.02,-1.52,-1.9));
#1816=CARTESIAN_POINT('',(1.52,-1.52,-1.9));
#1817=CARTESIAN_POINT('',(1.52,-1.52,-1.9));
#1818=CARTESIAN_POINT('',(1.52,-1.02,-1.9));
#1819=CARTESIAN_POINT('',(1.02,1.52,-1.9));
#1820=CARTESIAN_POINT('',(1.02,1.52,-1.9));
#1821=CARTESIAN_POINT('',(1.52,1.52,-1.9));
#1822=CARTESIAN_POINT('',(1.02,1.02,-1.9));
#1823=CARTESIAN_POINT('',(1.02,1.02,-1.9));
#1824=CARTESIAN_POINT('',(1.52,1.02,-1.9));
#1825=CARTESIAN_POINT('',(1.52,1.02,-1.9));
#1826=CARTESIAN_POINT('',(1.52,1.52,-1.9));
#1827=CARTESIAN_POINT('',(-1.52,1.52,-1.9));
#1828=CARTESIAN_POINT('',(-1.52,1.52,-1.9));
#1829=CARTESIAN_POINT('',(-1.02,1.52,-1.9));
#1830=CARTESIAN_POINT('',(-1.52,1.02,-1.9));
#1831=CARTESIAN_POINT('',(-1.52,1.02,-1.9));
#1832=CARTESIAN_POINT('',(-1.02,1.02,-1.9));
#1833=CARTESIAN_POINT('',(-1.02,1.02,-1.9));
#1834=CARTESIAN_POINT('',(-1.02,1.52,-1.9));
#1835=CARTESIAN_POINT('',(1.75,-1.75,1.9));
#1836=CARTESIAN_POINT('',(1.75,-1.75,1.9));
#1837=CARTESIAN_POINT('',(1.75,1.75,1.9));
#1838=CARTESIAN_POINT('',(1.75,0.,0.15));
#1839=CARTESIAN_POINT('',(1.75,1.75,1.9));
#1840=CARTESIAN_POINT('',(-1.75,-1.75,-1.9));
#1841=CARTESIAN_POINT('',(-1.75,1.75,-1.9));
#1842=CARTESIAN_POINT('',(-1.75,1.75,1.9));
#1843=CARTESIAN_POINT('',(-1.75,-1.75,-1.9));
#1844=CARTESIAN_POINT('',(-1.75,-1.75,1.9));
#1845=CARTESIAN_POINT('',(-1.75,-1.75,1.9));
#1846=CARTESIAN_POINT('',(-1.75,-1.75,1.9));
#1847=CARTESIAN_POINT('',(-1.75,1.75,1.9));
#1848=CARTESIAN_POINT('',(-1.75,-1.75,1.9));
#1849=CARTESIAN_POINT('',(0.,-1.75,0.));
#1850=CARTESIAN_POINT('',(0.,1.75,0.));
#1851=CARTESIAN_POINT('',(-1.52,-1.52,-4.4));
#1852=CARTESIAN_POINT('',(-1.52,-1.02,-4.4));
#1853=CARTESIAN_POINT('',(-1.52,-1.02,-4.4));
#1854=CARTESIAN_POINT('',(-1.52,-1.52,-4.4));
#1855=CARTESIAN_POINT('',(-1.52,-1.52,-4.4));
#1856=CARTESIAN_POINT('',(-1.52,-1.52,-4.4));
#1857=CARTESIAN_POINT('',(-1.52,-1.02,-4.4));
#1858=CARTESIAN_POINT('',(-1.02,-1.02,-4.4));
#1859=CARTESIAN_POINT('',(-1.02,-1.02,-4.4));
#1860=CARTESIAN_POINT('',(-1.52,-1.02,-4.4));
#1861=CARTESIAN_POINT('',(-1.02,-1.02,-4.4));
#1862=CARTESIAN_POINT('',(-1.02,-1.52,-4.4));
#1863=CARTESIAN_POINT('',(-1.02,-1.52,-4.4));
#1864=CARTESIAN_POINT('',(-1.02,-1.02,-4.4));
#1865=CARTESIAN_POINT('',(-1.02,-1.52,-4.4));
#1866=CARTESIAN_POINT('',(-1.02,-1.52,-4.4));
#1867=CARTESIAN_POINT('',(6.36065274524829E-16,0.,-4.4));
#1868=CARTESIAN_POINT('',(1.02,-1.52,-4.4));
#1869=CARTESIAN_POINT('',(1.02,-1.02,-4.4));
#1870=CARTESIAN_POINT('',(1.02,-1.02,-4.4));
#1871=CARTESIAN_POINT('',(1.02,-1.52,-4.4));
#1872=CARTESIAN_POINT('',(1.02,-1.52,-4.4));
#1873=CARTESIAN_POINT('',(1.02,-1.52,-4.4));
#1874=CARTESIAN_POINT('',(1.02,-1.02,-4.4));
#1875=CARTESIAN_POINT('',(1.52,-1.02,-4.4));
#1876=CARTESIAN_POINT('',(1.52,-1.02,-4.4));
#1877=CARTESIAN_POINT('',(1.02,-1.02,-4.4));
#1878=CARTESIAN_POINT('',(1.52,-1.02,-4.4));
#1879=CARTESIAN_POINT('',(1.52,-1.52,-4.4));
#1880=CARTESIAN_POINT('',(1.52,-1.52,-4.4));
#1881=CARTESIAN_POINT('',(1.52,-1.02,-4.4));
#1882=CARTESIAN_POINT('',(1.52,-1.52,-4.4));
#1883=CARTESIAN_POINT('',(1.52,-1.52,-4.4));
#1884=CARTESIAN_POINT('',(6.36065274524829E-16,0.,-4.4));
#1885=CARTESIAN_POINT('',(1.02,1.02,-4.4));
#1886=CARTESIAN_POINT('',(1.02,1.52,-4.4));
#1887=CARTESIAN_POINT('',(1.02,1.52,-4.4));
#1888=CARTESIAN_POINT('',(1.02,1.02,-4.4));
#1889=CARTESIAN_POINT('',(1.02,1.02,-4.4));
#1890=CARTESIAN_POINT('',(1.02,1.02,-4.4));
#1891=CARTESIAN_POINT('',(1.02,1.52,-4.4));
#1892=CARTESIAN_POINT('',(1.52,1.52,-4.4));
#1893=CARTESIAN_POINT('',(1.52,1.52,-4.4));
#1894=CARTESIAN_POINT('',(1.02,1.52,-4.4));
#1895=CARTESIAN_POINT('',(1.52,1.52,-4.4));
#1896=CARTESIAN_POINT('',(1.52,1.02,-4.4));
#1897=CARTESIAN_POINT('',(1.52,1.02,-4.4));
#1898=CARTESIAN_POINT('',(1.52,1.52,-4.4));
#1899=CARTESIAN_POINT('',(1.52,1.02,-4.4));
#1900=CARTESIAN_POINT('',(1.52,1.02,-4.4));
#1901=CARTESIAN_POINT('',(6.36065274524829E-16,0.,-4.4));
#1902=CARTESIAN_POINT('',(-1.52,1.02,-4.4));
#1903=CARTESIAN_POINT('',(-1.52,1.52,-4.4));
#1904=CARTESIAN_POINT('',(-1.52,1.52,-4.4));
#1905=CARTESIAN_POINT('',(-1.52,1.02,-4.4));
#1906=CARTESIAN_POINT('',(-1.52,1.02,-4.4));
#1907=CARTESIAN_POINT('',(-1.52,1.02,-4.4));
#1908=CARTESIAN_POINT('',(-1.52,1.52,-4.4));
#1909=CARTESIAN_POINT('',(-1.02,1.52,-4.4));
#1910=CARTESIAN_POINT('',(-1.02,1.52,-4.4));
#1911=CARTESIAN_POINT('',(-1.52,1.52,-4.4));
#1912=CARTESIAN_POINT('',(-1.02,1.52,-4.4));
#1913=CARTESIAN_POINT('',(-1.02,1.02,-4.4));
#1914=CARTESIAN_POINT('',(-1.02,1.02,-4.4));
#1915=CARTESIAN_POINT('',(-1.02,1.52,-4.4));
#1916=CARTESIAN_POINT('',(-1.02,1.02,-4.4));
#1917=CARTESIAN_POINT('',(-1.02,1.02,-4.4));
#1918=CARTESIAN_POINT('',(6.36065274524829E-16,0.,-4.4));
#1919=CARTESIAN_POINT('',(4.75,0.,0.150000000000001));
#1920=CARTESIAN_POINT('',(4.7,0.,0.150000000000001));
#1921=CARTESIAN_POINT('',(4.7,0.,1.9));
#1922=CARTESIAN_POINT('',(4.75,0.,0.150000000000001));
#1923=CARTESIAN_POINT('',(4.75,0.,0.150000000000001));
#1924=CARTESIAN_POINT('',(4.75,0.,1.85));
#1925=CARTESIAN_POINT('',(4.75,0.,0.150000000000001));
#1926=CARTESIAN_POINT('',(4.75,0.,-1.43));
#1927=CARTESIAN_POINT('',(1.25,0.,0.15));
#1928=CARTESIAN_POINT('',(3.7,0.,0.15));
#1929=CARTESIAN_POINT('',(3.7,0.,-1.06));
#1930=CARTESIAN_POINT('',(3.81,0.,0.15));
#1931=CARTESIAN_POINT('',(3.81,0.,0.15));
#1932=CARTESIAN_POINT('',(3.81,0.,-1.36));
#1933=CARTESIAN_POINT('',(4.75,0.,0.150000000000001));
#1934=CARTESIAN_POINT('',(4.2,0.,0.150000000000001));
#1935=CARTESIAN_POINT('',(4.2,0.,-1.36));
#1936=CARTESIAN_POINT('',(4.42,0.,0.150000000000001));
#1937=CARTESIAN_POINT('',(4.42,0.,0.150000000000001));
#1938=CARTESIAN_POINT('',(4.42,0.,-1.3));
#1939=CARTESIAN_POINT('',(4.75,0.,0.150000000000001));
#1940=CARTESIAN_POINT('',(4.52,0.,0.150000000000001));
#1941=CARTESIAN_POINT('',(4.52,0.,-1.3));
#1942=CARTESIAN_POINT('',(4.75,0.,0.150000000000001));
#1943=CARTESIAN_POINT('',(4.7,0.,0.150000000000001));
#1944=CARTESIAN_POINT('',(-1.23908819712629E-16,0.,-0.65));
#1945=MECHANICAL_DESIGN_GEOMETRIC_PRESENTATION_REPRESENTATION('',(#839,
#840,#841,#842,#843,#844,#845,#846,#847,#848,#849,#850,#851,#852,#853,#854,
#855,#856,#857,#858,#859,#860,#861,#862,#863,#864,#865,#866,#867,#868,#869,
#870,#871,#872,#873,#874,#875,#876,#877,#878,#879,#880,#881,#882,#883,#884,
#885,#886,#887,#888,#889,#890,#891,#892,#893,#894,#895,#896),#1946);
#1946=(
GEOMETRIC_REPRESENTATION_CONTEXT(3)
GLOBAL_UNCERTAINTY_ASSIGNED_CONTEXT((#1947))
GLOBAL_UNIT_ASSIGNED_CONTEXT((#1950,#1949,#1948))
REPRESENTATION_CONTEXT('66011002111501','TOP_LEVEL_ASSEMBLY_PART')
);
#1947=UNCERTAINTY_MEASURE_WITH_UNIT(LENGTH_MEASURE(0.005),#1950,
'DISTANCE_ACCURACY_VALUE','Maximum Tolerance applied to model');
#1948=(
NAMED_UNIT(*)
SI_UNIT($,.STERADIAN.)
SOLID_ANGLE_UNIT()
);
#1949=(
NAMED_UNIT(*)
PLANE_ANGLE_UNIT()
SI_UNIT($,.RADIAN.)
);
#1950=(
LENGTH_UNIT()
NAMED_UNIT(*)
SI_UNIT(.MILLI.,.METRE.)
);
#1951=PRODUCT_DEFINITION_SHAPE('','',#1952);
#1952=PRODUCT_DEFINITION('','',#1954,#1953);
#1953=PRODUCT_DEFINITION_CONTEXT('',#1960,'design');
#1954=PRODUCT_DEFINITION_FORMATION_WITH_SPECIFIED_SOURCE('','',#1956,
 .NOT_KNOWN.);
#1955=PRODUCT_RELATED_PRODUCT_CATEGORY('','',(#1956));
#1956=PRODUCT('66011002111501','66011002111501','66011002111501',(#1958));
#1957=PRODUCT_CATEGORY('','');
#1958=PRODUCT_CONTEXT('',#1960,'mechanical');
#1959=APPLICATION_PROTOCOL_DEFINITION('international standard',
'automotive_design',2010,#1960);
#1960=APPLICATION_CONTEXT(
'core data for automotive mechanical design processes');
ENDSEC;
END-ISO-10303-21;
